<?xml version="1.0" encoding="utf-8"?>
<!-- Generator: Adobe Illustrator 19.2.1, SVG Export Plug-In . SVG Version: 6.00 Build 0)  -->
<svg version="1.1" id="Layer_1" xmlns="http://www.w3.org/2000/svg" xmlns:xlink="http://www.w3.org/1999/xlink" x="0px" y="0px"
	 viewBox="0 0 60 60" style="enable-background:new 0 0 60 60;" xml:space="preserve">
<style type="text/css">
	.st0{fill:#333333;stroke:#333333;stroke-width:2;stroke-miterlimit:10;}
	.st1{fill:#EEEEEE;}
	.st2{fill:none;stroke:#333333;stroke-width:2;stroke-miterlimit:10;}
	.st3{fill:#333333;}
	.st4{fill:none;stroke:#EEEEEE;stroke-miterlimit:10;}
	.st5{fill:#333333;stroke:#EEEEEE;stroke-miterlimit:10;}
	.st6{fill:#EEEEEE;stroke:#333333;stroke-miterlimit:10;}
	.st7{fill:none;stroke:#333333;stroke-width:3;stroke-miterlimit:10;}
	.st8{fill:none;stroke:#333333;stroke-width:2;stroke-linecap:round;stroke-linejoin:round;stroke-miterlimit:10;}
	.st9{fill:#EEEEEE;stroke:#333333;stroke-width:2;stroke-miterlimit:10;}
	.st10{fill:none;stroke:#333333;stroke-miterlimit:10;}
	.st11{fill:#333333;stroke:#333333;stroke-miterlimit:10;}
</style>
<g>
	<path class="st3" d="M46.1,18.1c1.6-3.2,1.1-7.2-1.6-9.9S37.8,5,34.6,6.6L46.1,18.1z"/>
	<path class="st3" d="M33.7,7.1c-0.4,0.3-0.9,0.6-1.3,1c-2.5,2.5-3.1,6.1-1.9,9.1l4.9,4.9c3.1,1.2,6.7,0.5,9.1-1.9
		c0.4-0.4,0.7-0.8,1-1.3L33.7,7.1z"/>
	<g>
		<path class="st3" d="M14.1,31.8l-1.4,1.4c-0.9,0.9-0.9,2.3,0,3.2l3.6,3.6c0.4,0.4,1,0.7,1.6,0.7c0.6,0,1.2-0.2,1.6-0.7l1.4-1.4
			L14.1,31.8z"/>
		
			<rect x="15.3" y="22.7" transform="matrix(0.7071 -0.7071 0.7071 0.7071 -12.0616 25.8684)" class="st3" width="19.9" height="9.6"/>
	</g>
	<polygon class="st3" points="31,55.2 31,29.9 29,31.9 29,55.2 4.4,55.2 4.4,57.2 55.6,57.2 55.6,55.2 	"/>
</g>
</svg>
