<?xml version="1.0" encoding="utf-8"?>
<!-- Generator: Adobe Illustrator 19.2.1, SVG Export Plug-In . SVG Version: 6.00 Build 0)  -->
<svg version="1.1" id="Layer_1" xmlns="http://www.w3.org/2000/svg" xmlns:xlink="http://www.w3.org/1999/xlink" x="0px" y="0px"
	 viewBox="0 0 60 60" style="enable-background:new 0 0 60 60;" xml:space="preserve">
<style type="text/css">
	.st0{fill:#333333;stroke:#333333;stroke-width:2;stroke-miterlimit:10;}
	.st1{fill:#EEEEEE;}
	.st2{fill:none;stroke:#333333;stroke-width:2;stroke-miterlimit:10;}
	.st3{fill:#333333;}
	.st4{fill:none;stroke:#EEEEEE;stroke-miterlimit:10;}
	.st5{fill:#333333;stroke:#EEEEEE;stroke-miterlimit:10;}
	.st6{fill:#EEEEEE;stroke:#333333;stroke-miterlimit:10;}
	.st7{fill:none;stroke:#333333;stroke-width:3;stroke-miterlimit:10;}
	.st8{fill:none;stroke:#333333;stroke-width:2;stroke-linecap:round;stroke-linejoin:round;stroke-miterlimit:10;}
	.st9{fill:none;stroke:#333333;stroke-miterlimit:10;}
	.st10{fill:#EEEEEE;stroke:#333333;stroke-width:2;stroke-miterlimit:10;}
	.st11{fill:#333333;stroke:#333333;stroke-miterlimit:10;}
</style>
<g>
	<path class="st3" d="M30,8.5c-11.2,0-19.8,3.6-19.8,6.8s8.7,6.8,19.8,6.8s19.8-3.6,19.8-6.8S41.2,8.5,30,8.5z"/>
	<g>
		<rect x="11.8" y="20.6" class="st3" width="1.4" height="12.2"/>
	</g>
	<g>
		<rect x="19.8" y="23.5" class="st3" width="1.4" height="12.4"/>
	</g>
	<g>
		<rect x="29.3" y="23.9" class="st3" width="1.4" height="12.9"/>
	</g>
	<g>
		<rect x="38.7" y="23.5" class="st3" width="1.4" height="12.4"/>
	</g>
	<g>
		<rect x="46.8" y="20.6" class="st3" width="1.4" height="12.2"/>
	</g>
	<circle class="st3" cx="30" cy="30.4" r="1.6"/>
	<circle class="st3" cx="39.4" cy="29.5" r="1.6"/>
	<circle class="st3" cx="47.5" cy="26.6" r="1.6"/>
	<circle class="st3" cx="20.6" cy="29.5" r="1.6"/>
	<circle class="st3" cx="12.5" cy="26.6" r="1.6"/>
	<g>
		<rect x="29" y="36.3" class="st3" width="2" height="20.9"/>
	</g>
	<polygon class="st3" points="9.2,57.2 30,47.8 50.8,57.2 54.4,57.2 30,45.8 5.6,57.2 	"/>
	<g>
		<rect x="30.7" y="41.2" class="st3" width="3.5" height="2"/>
		
			<rect x="32.2" y="40.7" transform="matrix(4.568352e-11 -1 1 4.568352e-11 -7.3347 77.0534)" class="st3" width="5.3" height="3"/>
	</g>
	<path class="st3" d="M30,5.7c-12.7,0-22.7,4.2-22.7,9.6c0,5.4,10,9.6,22.7,9.6s22.7-4.2,22.7-9.6C52.7,9.9,42.7,5.7,30,5.7z
		 M30,23.5c-11.5,0-21.3-3.8-21.3-8.2c0-4.4,9.7-8.2,21.3-8.2s21.3,3.8,21.3,8.2C51.3,19.7,41.5,23.5,30,23.5z"/>
	<g>
		<path class="st3" d="M52,14.5h-0.8c0.1,0.2,0.1,0.5,0.1,0.7c0,0.2,0,0.5-0.1,0.7h0.1v11.7c0,4.4-9.7,8.2-21.3,8.2
			S8.7,32.1,8.7,27.7V16h0.1c0-0.2-0.1-0.4-0.1-0.7c0-0.3,0-0.5,0.1-0.7H8c-0.4,0-0.7,0.3-0.7,0.7v12.4c0,5.4,10,9.6,22.7,9.6
			s22.7-4.2,22.7-9.6V15.3C52.7,14.9,52.4,14.5,52,14.5z"/>
	</g>
</g>
</svg>
