<?xml version="1.0" encoding="utf-8"?>
<!-- Generator: Adobe Illustrator 19.2.1, SVG Export Plug-In . SVG Version: 6.00 Build 0)  -->
<svg version="1.1" id="Layer_1" xmlns="http://www.w3.org/2000/svg" xmlns:xlink="http://www.w3.org/1999/xlink" x="0px" y="0px"
	 viewBox="0 0 60 60" style="enable-background:new 0 0 60 60;" xml:space="preserve">
<style type="text/css">
	.st0{fill:#333333;stroke:#333333;stroke-width:2;stroke-miterlimit:10;}
	.st1{fill:#EEEEEE;}
	.st2{fill:none;stroke:#333333;stroke-width:2;stroke-miterlimit:10;}
	.st3{fill:#333333;}
	.st4{fill:none;stroke:#EEEEEE;stroke-miterlimit:10;}
	.st5{fill:#333333;stroke:#EEEEEE;stroke-miterlimit:10;}
	.st6{fill:#EEEEEE;stroke:#333333;stroke-miterlimit:10;}
	.st7{fill:none;stroke:#333333;stroke-width:3;stroke-miterlimit:10;}
	.st8{fill:none;stroke:#333333;stroke-width:2;stroke-linecap:round;stroke-linejoin:round;stroke-miterlimit:10;}
	.st9{fill:none;stroke:#333333;stroke-miterlimit:10;}
	.st10{fill:#EEEEEE;stroke:#333333;stroke-width:2;stroke-miterlimit:10;}
	.st11{fill:#333333;stroke:#333333;stroke-miterlimit:10;}
</style>
<g>
	<g>
		<g>
			<rect x="4.4" y="55.2" class="st3" width="22.5" height="2"/>
		</g>
		<g>
			<rect x="4.4" y="39.1" class="st3" width="22.5" height="2"/>
		</g>
		<g>
			
				<rect x="7.6" y="47.2" transform="matrix(6.276319e-11 -1 1 6.276319e-11 -32.5128 63.8033)" class="st3" width="16.1" height="2"/>
		</g>
		<path class="st3" d="M15.6,10.6c-1.4,0-2.5,1.1-2.5,2.5s1.1,2.5,2.5,2.5s2.5-1.1,2.5-2.5S17,10.6,15.6,10.6z M15.6,14.6
			c-0.8,0-1.5-0.7-1.5-1.5c0-0.8,0.7-1.5,1.5-1.5c0.8,0,1.5,0.7,1.5,1.5C17.1,14,16.5,14.6,15.6,14.6z"/>
		<path class="st3" d="M23.9,5.7H7.4c-1.7,0-3,1.3-3,3v26.4c0,1.7,1.3,3,3,3h16.5c1.7,0,3-1.3,3-3V8.7C26.9,7,25.6,5.7,23.9,5.7z
			 M15.6,9.6c2,0,3.5,1.6,3.5,3.5c0,2-1.6,3.5-3.5,3.5s-3.5-1.6-3.5-3.5C12.1,11.2,13.7,9.6,15.6,9.6z M7.2,7.6
			c0.5,0,0.9,0.4,0.9,0.9c0,0.5-0.4,0.9-0.9,0.9S6.3,9.1,6.3,8.5C6.3,8,6.7,7.6,7.2,7.6z M7.2,36.2c-0.5,0-0.9-0.4-0.9-0.9
			s0.4-0.9,0.9-0.9s0.9,0.4,0.9,0.9S7.8,36.2,7.2,36.2z M15.6,34.2c-4.1,0-7.5-3.3-7.5-7.5c0-4.1,3.3-7.5,7.5-7.5s7.5,3.3,7.5,7.5
			C23.1,30.8,19.8,34.2,15.6,34.2z M24.1,36.2c-0.5,0-0.9-0.4-0.9-0.9s0.4-0.9,0.9-0.9s0.9,0.4,0.9,0.9S24.6,36.2,24.1,36.2z
			 M24.1,9.5c-0.5,0-0.9-0.4-0.9-0.9c0-0.5,0.4-0.9,0.9-0.9S25,8,25,8.5C25,9.1,24.6,9.5,24.1,9.5z"/>
		<path class="st3" d="M15.6,33c-3.5,0-6.3-2.8-6.3-6.3s2.8-6.3,6.3-6.3s6.3,2.8,6.3,6.3S19.1,33,15.6,33z M15.6,22.4
			c-2.4,0-4.3,1.9-4.3,4.3c0,2.4,1.9,4.3,4.3,4.3s4.3-1.9,4.3-4.3C19.9,24.3,18,22.4,15.6,22.4z"/>
		<circle class="st3" cx="15.6" cy="26.7" r="2"/>
	</g>
	<g>
		<g>
			<rect x="33.1" y="55.2" class="st3" width="22.5" height="2"/>
		</g>
		<g>
			<rect x="33.1" y="39.1" class="st3" width="22.5" height="2"/>
		</g>
		<g>
			
				<rect x="36.3" y="47.2" transform="matrix(6.276319e-11 -1 1 6.276319e-11 -3.8033 92.5128)" class="st3" width="16.1" height="2"/>
		</g>
		<path class="st3" d="M44.4,10.6c-1.4,0-2.5,1.1-2.5,2.5s1.1,2.5,2.5,2.5s2.5-1.1,2.5-2.5S45.7,10.6,44.4,10.6z M44.4,14.6
			c-0.8,0-1.5-0.7-1.5-1.5c0-0.8,0.7-1.5,1.5-1.5c0.8,0,1.5,0.7,1.5,1.5C45.9,14,45.2,14.6,44.4,14.6z"/>
		<path class="st3" d="M52.6,5.7H36.1c-1.7,0-3,1.3-3,3v26.4c0,1.7,1.3,3,3,3h16.5c1.7,0,3-1.3,3-3V8.7C55.6,7,54.3,5.7,52.6,5.7z
			 M44.4,9.6c2,0,3.5,1.6,3.5,3.5c0,2-1.6,3.5-3.5,3.5s-3.5-1.6-3.5-3.5C40.8,11.2,42.4,9.6,44.4,9.6z M35.9,7.6
			c0.5,0,0.9,0.4,0.9,0.9c0,0.5-0.4,0.9-0.9,0.9S35,9.1,35,8.5C35,8,35.4,7.6,35.9,7.6z M35.9,36.2c-0.5,0-0.9-0.4-0.9-0.9
			s0.4-0.9,0.9-0.9s0.9,0.4,0.9,0.9S36.5,36.2,35.9,36.2z M44.4,34.2c-4.1,0-7.5-3.3-7.5-7.5c0-4.1,3.3-7.5,7.5-7.5s7.5,3.3,7.5,7.5
			C51.8,30.8,48.5,34.2,44.4,34.2z M52.8,36.2c-0.5,0-0.9-0.4-0.9-0.9s0.4-0.9,0.9-0.9s0.9,0.4,0.9,0.9S53.3,36.2,52.8,36.2z
			 M52.8,9.5c-0.5,0-0.9-0.4-0.9-0.9c0-0.5,0.4-0.9,0.9-0.9s0.9,0.4,0.9,0.9C53.7,9.1,53.3,9.5,52.8,9.5z"/>
		<path class="st3" d="M44.4,33c-3.5,0-6.3-2.8-6.3-6.3s2.8-6.3,6.3-6.3s6.3,2.8,6.3,6.3S47.8,33,44.4,33z M44.4,22.4
			c-2.4,0-4.3,1.9-4.3,4.3c0,2.4,1.9,4.3,4.3,4.3s4.3-1.9,4.3-4.3C48.6,24.3,46.7,22.4,44.4,22.4z"/>
		<circle class="st3" cx="44.4" cy="26.7" r="2"/>
	</g>
</g>
</svg>
