<?xml version="1.0" encoding="utf-8"?>
<!-- Generator: Adobe Illustrator 19.2.1, SVG Export Plug-In . SVG Version: 6.00 Build 0)  -->
<svg version="1.1" id="Layer_1" xmlns="http://www.w3.org/2000/svg" xmlns:xlink="http://www.w3.org/1999/xlink" x="0px" y="0px"
	 viewBox="0 0 60 60" style="enable-background:new 0 0 60 60;" xml:space="preserve">
<style type="text/css">
	.st0{fill:#333333;stroke:#333333;stroke-width:2;stroke-miterlimit:10;}
	.st1{fill:#EEEEEE;}
	.st2{fill:none;stroke:#333333;stroke-width:2;stroke-miterlimit:10;}
	.st3{fill:#333333;}
	.st4{fill:none;stroke:#EEEEEE;stroke-miterlimit:10;}
	.st5{fill:#333333;stroke:#EEEEEE;stroke-miterlimit:10;}
	.st6{fill:#EEEEEE;stroke:#333333;stroke-miterlimit:10;}
	.st7{fill:none;stroke:#333333;stroke-width:3;stroke-miterlimit:10;}
	.st8{fill:none;stroke:#333333;stroke-width:2;stroke-linecap:round;stroke-linejoin:round;stroke-miterlimit:10;}
	.st9{fill:#EEEEEE;stroke:#333333;stroke-width:2;stroke-miterlimit:10;}
	.st10{fill:none;stroke:#333333;stroke-miterlimit:10;}
	.st11{fill:#333333;stroke:#333333;stroke-miterlimit:10;}
</style>
<g>
	<g>
		<g>
			<g>
				<rect x="29" y="36.3" class="st3" width="2" height="20.9"/>
			</g>
		</g>
		<g>
			<polygon class="st3" points="9.2,57.2 30,47.8 50.8,57.2 54.4,57.2 30,45.8 5.6,57.2 			"/>
		</g>
		<g>
			<g>
				<rect x="30.7" y="41.2" class="st3" width="3.5" height="2"/>
			</g>
			<g>
				
					<rect x="32.2" y="40.7" transform="matrix(4.602724e-11 -1 1 4.602724e-11 -7.3347 77.0534)" class="st3" width="5.3" height="3"/>
			</g>
		</g>
	</g>
	<g>
		<path class="st3" d="M5.6,5.7v31.6h48.7V5.7H5.6z M52.4,35.1H7.6V7.8h44.7V35.1z"/>
	</g>
	<g>
		<rect x="29.5" y="7.6" class="st3" width="1" height="28.6"/>
	</g>
	<g>
		<g>
			<rect x="10.2" y="9.9" class="st3" width="16.8" height="2"/>
		</g>
		<g>
			<rect x="10.2" y="14.1" class="st3" width="8.4" height="2"/>
		</g>
		<g>
			<rect x="10.2" y="18.4" class="st3" width="12.8" height="2"/>
		</g>
		<g>
			<rect x="10.2" y="22.6" class="st3" width="16.8" height="2"/>
		</g>
		<g>
			<rect x="10.2" y="26.8" class="st3" width="12.8" height="2"/>
		</g>
		<g>
			<rect x="10.2" y="31.1" class="st3" width="16.8" height="2"/>
		</g>
	</g>
	<g>
		<g>
			<rect x="33" y="31.1" class="st3" width="16.8" height="2"/>
		</g>
		<g>
			<rect x="33" y="26.8" class="st3" width="8.4" height="2"/>
		</g>
		<g>
			<rect x="33" y="22.6" class="st3" width="12.8" height="2"/>
		</g>
		<g>
			<rect x="33" y="18.4" class="st3" width="16.8" height="2"/>
		</g>
		<g>
			<rect x="33" y="14.1" class="st3" width="12.8" height="2"/>
		</g>
		<g>
			<rect x="33" y="9.9" class="st3" width="16.8" height="2"/>
		</g>
	</g>
</g>
</svg>
