<?xml version="1.0" encoding="utf-8"?>
<!-- Generator: Adobe Illustrator 19.2.1, SVG Export Plug-In . SVG Version: 6.00 Build 0)  -->
<svg version="1.1" id="Layer_1" xmlns="http://www.w3.org/2000/svg" xmlns:xlink="http://www.w3.org/1999/xlink" x="0px" y="0px"
	 viewBox="0 0 60 60" style="enable-background:new 0 0 60 60;" xml:space="preserve">
<style type="text/css">
	.st0{fill:#333333;stroke:#333333;stroke-width:2;stroke-miterlimit:10;}
	.st1{fill:#EEEEEE;}
	.st2{fill:none;stroke:#333333;stroke-width:2;stroke-miterlimit:10;}
	.st3{fill:#333333;}
	.st4{fill:none;stroke:#EEEEEE;stroke-miterlimit:10;}
	.st5{fill:#333333;stroke:#EEEEEE;stroke-miterlimit:10;}
	.st6{fill:#EEEEEE;stroke:#333333;stroke-miterlimit:10;}
	.st7{fill:none;stroke:#333333;stroke-width:3;stroke-miterlimit:10;}
	.st8{fill:none;stroke:#333333;stroke-width:2;stroke-linecap:round;stroke-linejoin:round;stroke-miterlimit:10;}
	.st9{fill:#EEEEEE;stroke:#333333;stroke-width:2;stroke-miterlimit:10;}
	.st10{fill:none;stroke:#333333;stroke-miterlimit:10;}
	.st11{fill:#333333;stroke:#333333;stroke-miterlimit:10;}
</style>
<g>
	<g>
		<g>
			<path class="st3" d="M44,15.9l-4.3,28c0,0-5.5,4.1-7.6-1.2s2.7-8.1,2.7-8.1s4.9-11.6,6.1-19.2C42,7.8,44,15.9,44,15.9z"/>
			<path class="st3" d="M44,15.9L47.7,44c0,0,5.5,4.2,7.7-1c2.2-5.2-2.6-8.2-2.6-8.2s-4.7-11.7-5.7-19.4C46.1,7.8,44,15.9,44,15.9z"
				/>
			<g>
				<path class="st3" d="M48.6,11.5c-0.4,2.7-3,4.6-5.7,4.2s-4.6-3-4.2-5.7c0.4-2.7,3-4.6,5.7-4.2S49,8.7,48.6,11.5z M42,10.5
					c-0.1,0.9,0.5,1.7,1.3,1.8c0.9,0.1,1.7-0.5,1.8-1.3c0.1-0.9-0.5-1.7-1.3-1.8C43,9,42.1,9.6,42,10.5z"/>
			</g>
		</g>
	</g>
	<g>
		<path class="st3" d="M22.7,48.7H6.1c-1.1,0-2,0.9-2,2v4.5c0,1.1,0.9,2,2,2h16.6c1.1,0,2-0.9,2-2v-4.5
			C24.7,49.6,23.8,48.7,22.7,48.7z"/>
		<path class="st3" d="M18.6,45h-8.4c-0.6,0-1,0.4-1,1v0.7c0,0.6,0.4,1,1,1h8.4c0.6,0,1-0.4,1-1V46C19.6,45.4,19.1,45,18.6,45z"/>
		<path class="st3" d="M17.6,41.2h-6.4c-0.6,0-1,0.4-1,1v0.7c0,0.6,0.4,1,1,1h6.4c0.6,0,1-0.4,1-1v-0.7
			C18.6,41.6,18.1,41.2,17.6,41.2z"/>
		<path class="st3" d="M16.6,37.4h-4.4c-0.6,0-1,0.4-1,1v0.7c0,0.6,0.4,1,1,1h4.4c0.6,0,1-0.4,1-1v-0.7
			C17.6,37.9,17.1,37.4,16.6,37.4z"/>
		<path class="st3" d="M18.6,33.6h-8.4c-0.6,0-1,0.4-1,1v0.7c0,0.6,0.4,1,1,1h8.4c0.6,0,1-0.4,1-1v-0.7
			C19.6,34.1,19.1,33.6,18.6,33.6z"/>
		<path class="st3" d="M18.6,29.8h-8.4c-0.6,0-1,0.4-1,1v0.7c0,0.6,0.4,1,1,1h8.4c0.6,0,1-0.4,1-1v-0.7
			C19.6,30.3,19.1,29.8,18.6,29.8z"/>
		<path class="st3" d="M18.6,26.1h-8.4c-0.6,0-1,0.4-1,1v0.7c0,0.6,0.4,1,1,1h8.4c0.6,0,1-0.4,1-1v-0.7
			C19.6,26.5,19.1,26.1,18.6,26.1z"/>
		<path class="st3" d="M18.6,22.3h-8.4c-0.6,0-1,0.4-1,1V24c0,0.6,0.4,1,1,1h8.4c0.6,0,1-0.4,1-1v-0.7
			C19.6,22.7,19.1,22.3,18.6,22.3z"/>
	</g>
</g>
</svg>
