<?xml version="1.0" encoding="utf-8"?>
<!-- Generator: Adobe Illustrator 19.2.1, SVG Export Plug-In . SVG Version: 6.00 Build 0)  -->
<svg version="1.1" id="Layer_1" xmlns="http://www.w3.org/2000/svg" xmlns:xlink="http://www.w3.org/1999/xlink" x="0px" y="0px"
	 viewBox="0 0 60 60" style="enable-background:new 0 0 60 60;" xml:space="preserve">
<style type="text/css">
	.st0{fill:#333333;stroke:#333333;stroke-width:2;stroke-miterlimit:10;}
	.st1{fill:#EEEEEE;}
	.st2{fill:none;stroke:#333333;stroke-width:2;stroke-miterlimit:10;}
	.st3{fill:#333333;}
	.st4{fill:none;stroke:#EEEEEE;stroke-miterlimit:10;}
	.st5{fill:#333333;stroke:#EEEEEE;stroke-miterlimit:10;}
	.st6{fill:#EEEEEE;stroke:#333333;stroke-miterlimit:10;}
	.st7{fill:none;stroke:#333333;stroke-width:3;stroke-miterlimit:10;}
	.st8{fill:none;stroke:#333333;stroke-width:2;stroke-linecap:round;stroke-linejoin:round;stroke-miterlimit:10;}
</style>
<path class="st3" d="M47,5.9h-3.8h-1.7h-3.8h-3.2h-3.8h-1.7h-3.8h-3.2h-3.8h-1.7H13H4.4v51.2h12.4h1.7h10.7h1.7h10.7h1.7h12.4V5.9
	H47z M6,55.5V7.6h7v34.3h3.8v13.6H6z M18.4,55.5V41.9h3.8V7.6h3.2v34.3h3.8v13.6H18.4z M30.8,55.5V41.9h3.8V7.6h3.2v34.3h3.8v13.6
	H30.8z M54,55.5H43.2V41.9H47V7.6h7V55.5z"/>
</svg>
