<?xml version="1.0" encoding="utf-8"?>
<!-- Generator: Adobe Illustrator 19.2.1, SVG Export Plug-In . SVG Version: 6.00 Build 0)  -->
<svg version="1.1" id="Layer_1" xmlns="http://www.w3.org/2000/svg" xmlns:xlink="http://www.w3.org/1999/xlink" x="0px" y="0px"
	 viewBox="0 0 60 60" style="enable-background:new 0 0 60 60;" xml:space="preserve">
<style type="text/css">
	.st0{fill:#333333;}
	.st1{fill:#EEEEEE;}
	.st2{fill:none;stroke:#EEEEEE;stroke-miterlimit:10;}
	.st3{fill:#333333;stroke:#EEEEEE;stroke-miterlimit:10;}
	.st4{fill:#EEEEEE;stroke:#333333;stroke-miterlimit:10;}
	.st5{fill:none;stroke:#333333;stroke-width:2;stroke-miterlimit:10;}
	.st6{fill:none;stroke:#333333;stroke-width:3;stroke-miterlimit:10;}
	.st7{fill:none;stroke:#333333;stroke-width:2;stroke-linecap:round;stroke-linejoin:round;stroke-miterlimit:10;}
</style>
<g>
	<path class="st0" d="M4.2,5.8v51.6h51.6V5.8H4.2z M25.7,16.2c1.8,0,3.2,1.4,3.2,3.2s-1.4,3.2-3.2,3.2s-3.2-1.4-3.2-3.2
		S23.9,16.2,25.7,16.2z M17.6,17.7c0.9,0,1.7,0.7,1.7,1.7S18.5,21,17.6,21s-1.7-0.7-1.7-1.7S16.6,17.7,17.6,17.7z M10.9,17.7
		c0.9,0,1.7,0.7,1.7,1.7S11.9,21,10.9,21s-1.7-0.7-1.7-1.7S10,17.7,10.9,17.7z M50.7,55.5H9.3V32.9h41.4V55.5z M50.7,26.6H32.2V12.1
		h18.5V26.6z"/>
	<rect x="18.6" y="31.6" class="st0" width="2" height="24.5"/>
	<rect x="29" y="31.6" class="st0" width="2" height="24.5"/>
	<rect x="39.4" y="31.6" class="st0" width="2" height="24.5"/>
	<rect x="17.2" y="31.6" class="st0" width="4.9" height="17.8"/>
	<rect x="27.5" y="31.6" class="st0" width="4.9" height="17.8"/>
	<rect x="37.9" y="31.6" class="st0" width="4.9" height="17.8"/>
</g>
</svg>
