<?xml version="1.0" encoding="utf-8"?>
<!-- Generator: Adobe Illustrator 19.2.1, SVG Export Plug-In . SVG Version: 6.00 Build 0)  -->
<svg version="1.1" id="Layer_1" xmlns="http://www.w3.org/2000/svg" xmlns:xlink="http://www.w3.org/1999/xlink" x="0px" y="0px"
	 viewBox="0 0 60 60" style="enable-background:new 0 0 60 60;" xml:space="preserve">
<style type="text/css">
	.st0{fill:#333333;}
	.st1{fill:#EEEEEE;}
	.st2{fill:none;stroke:#EEEEEE;stroke-miterlimit:10;}
	.st3{fill:#333333;stroke:#EEEEEE;stroke-miterlimit:10;}
	.st4{fill:#EEEEEE;stroke:#333333;stroke-miterlimit:10;}
	.st5{fill:none;stroke:#333333;stroke-width:2;stroke-miterlimit:10;}
	.st6{fill:none;stroke:#333333;stroke-width:3;stroke-miterlimit:10;}
	.st7{fill:none;stroke:#333333;stroke-width:2;stroke-linecap:round;stroke-linejoin:round;stroke-miterlimit:10;}
</style>
<g>
	<g>
		<path class="st0" d="M18.3,55.7c-9.6,0-17.5-7.8-17.5-17.5c0-9.6,7.8-17.5,17.5-17.5c9.6,0,17.5,7.8,17.5,17.5
			C35.7,47.8,27.9,55.7,18.3,55.7z M18.3,24.2c-7.7,0-14,6.3-14,14c0,7.7,6.3,14,14,14c7.7,0,14-6.3,14-14
			C32.3,30.5,26,24.2,18.3,24.2z"/>
	</g>
	<g>
		<polygon class="st0" points="4.2,35.1 1.2,34.5 6,12.1 9.3,12.7 5.4,31.5 		"/>
	</g>
	<path class="st0" d="M9.4,4.5l-0.1,0L7.2,4C6.4,3.9,5.7,4.5,5.7,5.3C5.7,5.9,5.8,6.6,6,7c0.5,1,0.6,3.3,0.6,3.3l1.6,0.3l0.1,0
		l1.6,0.3c0,0,0.9-2,1.7-2.8c0.4-0.3,0.7-1,0.9-1.6c0.3-0.7-0.2-1.5-0.9-1.7L9.4,4.5z"/>
	<path class="st0" d="M21.6,55.4c0,0,9.7-2.3,18.3-9.1s15.8-6.3,15.8-6.3s4.3-0.4,3.4-2.9s-3.7-6.7-9-10.6s-10.5-4.9-10.5-4.9
		s-4.7-1.3-3.9,2.6s3,11.6-0.3,17.1S21.6,55.4,21.6,55.4z"/>
	<g>
		<rect x="22.1" y="24.2" class="st0" width="3.4" height="28.1"/>
	</g>
	<g>
		<path class="st0" d="M25.8,35l-9.6,0c-0.8,0-0.5-0.4-0.7-1.2c-0.4-1.2-0.5-2.3,0.6-2.3l9.6,0c0.9,0,1.7,0.6,1.8,1.4
			C27.7,34.1,26.9,35,25.8,35z"/>
	</g>
	<path class="st0" d="M13,32.5H7.6c-0.5,0-0.9,0.4-0.9,0.9s0.4,0.9,0.9,0.9H13c0.5,0,0.9-0.4,0.9-0.9S13.5,32.5,13,32.5z"/>
	<path class="st0" d="M13,28.4c0.5,0,0.9,0.1,1.4,0.2v-4.5H11v4.8C11.6,28.6,12.3,28.4,13,28.4z"/>
	<g>
		<path class="st0" d="M13,29.5c-1.5,0-2.7,0.8-3.4,2.1H13c0.9,0,1.7,0.8,1.7,1.7S14,35,13,35H9.7c0.6,1.2,1.9,2.1,3.4,2.1
			c2.1,0,3.8-1.7,3.8-3.8S15.1,29.5,13,29.5z"/>
		<path class="st0" d="M13.9,33.3c0-0.5-0.4-0.9-0.9-0.9H9.3c-0.1,0.3-0.1,0.6-0.1,0.9s0,0.6,0.1,0.9H13
			C13.5,34.2,13.9,33.8,13.9,33.3z"/>
	</g>
	<g>
		<path class="st0" d="M25.8,45.6h-9.7c-1,0-0.7-0.8-0.7-1.7c0-1-0.2-1.7,0.7-1.7h9.7c1,0,1.7,0.8,1.7,1.7
			C27.5,44.9,26.8,45.6,25.8,45.6z"/>
	</g>
	<g>
		<path class="st0" d="M13,39c0.5,0,0.9,0.1,1.4,0.2V38c-0.4,0.1-0.9,0.2-1.4,0.2c-0.7,0-1.4-0.2-2.1-0.5v1.8
			C11.6,39.2,12.3,39,13,39z"/>
		<path class="st0" d="M13,48.8c-0.7,0-1.4-0.2-2.1-0.5v3.9h3.4v-3.7C14,48.7,13.5,48.8,13,48.8z"/>
	</g>
	<path class="st0" d="M13,40.1c-1.5,0-2.7,0.8-3.4,2.1H13c0.9,0,1.7,0.8,1.7,1.7S14,45.6,13,45.6H9.7c0.6,1.2,1.9,2.1,3.4,2.1
		c2.1,0,3.8-1.7,3.8-3.8C16.8,41.8,15.1,40.1,13,40.1z"/>
	<path class="st0" d="M13,43.1H7.6c-0.5,0-0.9,0.4-0.9,0.9s0.4,0.9,0.9,0.9H13c0.5,0,0.9-0.4,0.9-0.9S13.5,43.1,13,43.1z"/>
</g>
</svg>
