<?xml version="1.0" encoding="utf-8"?>
<!-- Generator: Adobe Illustrator 19.2.1, SVG Export Plug-In . SVG Version: 6.00 Build 0)  -->
<svg version="1.1" id="Layer_1" xmlns="http://www.w3.org/2000/svg" xmlns:xlink="http://www.w3.org/1999/xlink" x="0px" y="0px"
	 viewBox="0 0 60 60" style="enable-background:new 0 0 60 60;" xml:space="preserve">
<style type="text/css">
	.st0{fill:#333333;}
	.st1{fill:#333333;stroke:#EEEEEE;stroke-miterlimit:10;}
	.st2{fill:#EEEEEE;stroke:#333333;stroke-miterlimit:10;}
	.st3{fill:none;stroke:#333333;stroke-width:2;stroke-miterlimit:10;}
	.st4{fill:none;stroke:#EEEEEE;stroke-miterlimit:10;}
	.st5{fill:#EEEEEE;}
	.st6{fill:none;stroke:#333333;stroke-width:3;stroke-miterlimit:10;}
	.st7{fill:none;stroke:#333333;stroke-width:2;stroke-linecap:round;stroke-linejoin:round;stroke-miterlimit:10;}
</style>
<g>
	<path class="st0" d="M24.9,34.5c0.5,0.5,0.7,1,0.9,1.6l30-30l-2.5-2.5l-30,30C23.9,33.8,24.4,34,24.9,34.5z"/>
	<g>
		<path class="st0" d="M45.3,12c0,0,1.4-2.5,1.9-4c0.3-1,2.6-3.2,3.9-4.2c0.8-0.6,1.8-0.6,2.5,0l1.1,1.1l-8.2,8.2L45.3,12z"/>
		<path class="st0" d="M47.4,14.1c0,0,2.5-1.4,4-1.9c1-0.3,3.2-2.6,4.2-3.9c0.6-0.8,0.6-1.8,0-2.5l-1.1-1.1L46.3,13L47.4,14.1z"/>
	</g>
	<g>
		<g>
			<g>
				<g>
					
						<rect x="55.6" y="7.7" transform="matrix(0.7071 -0.7071 0.7071 0.7071 10.3027 42.1684)" class="st0" width="0.9" height="1.8"/>
				</g>
				<g>
					
						<rect x="56.3" y="8.4" transform="matrix(0.7071 0.7071 -0.7071 0.7071 23.1856 -37.3732)" class="st0" width="0.8" height="1.7"/>
				</g>
			</g>
			<g>
				<g>
					
						<rect x="53.8" y="9.6" transform="matrix(0.7071 -0.7071 0.7071 0.7071 8.4586 41.4046)" class="st0" width="0.9" height="1.8"/>
				</g>
				<g>
					
						<rect x="54.5" y="10.3" transform="matrix(0.7071 0.7071 -0.7071 0.7071 23.9495 -35.5291)" class="st0" width="0.8" height="1.7"/>
				</g>
			</g>
			<g>
				<g>
					
						<rect x="51.9" y="11.4" transform="matrix(0.7071 -0.7071 0.7071 0.7071 6.6145 40.6408)" class="st0" width="0.9" height="1.8"/>
				</g>
				<g>
					
						<rect x="52.6" y="12.1" transform="matrix(0.7071 0.7071 -0.7071 0.7071 24.7133 -33.6851)" class="st0" width="0.8" height="1.7"/>
				</g>
			</g>
		</g>
		<g>
			<g>
				<g>
					
						<rect x="50.3" y="2.4" transform="matrix(0.7071 -0.7071 0.7071 0.7071 12.5137 36.8305)" class="st0" width="0.9" height="1.8"/>
				</g>
				<g>
					
						<rect x="49.7" y="1.8" transform="matrix(-0.7071 -0.7071 0.7071 -0.7071 83.5827 39.9346)" class="st0" width="0.8" height="1.7"/>
				</g>
			</g>
			<g>
				<g>
					
						<rect x="48.4" y="4.2" transform="matrix(0.7071 -0.7071 0.7071 0.7071 10.6696 36.0667)" class="st0" width="0.9" height="1.8"/>
				</g>
				<g>
					
						<rect x="47.8" y="3.6" transform="matrix(-0.7071 -0.7071 0.7071 -0.7071 79.1307 41.7787)" class="st0" width="0.8" height="1.7"/>
				</g>
			</g>
			<g>
				<g>
					
						<rect x="46.6" y="6.1" transform="matrix(0.7071 -0.7071 0.7071 0.7071 8.8256 35.3028)" class="st0" width="0.9" height="1.8"/>
				</g>
				<g>
					
						<rect x="46" y="5.5" transform="matrix(-0.7071 -0.7071 0.7071 -0.7071 74.6788 43.6228)" class="st0" width="0.8" height="1.7"/>
				</g>
			</g>
		</g>
	</g>
	<path class="st0" d="M35.6,27.7L26.3,37l-0.4,0.4c-0.1,0.7-0.4,1.4-1,1.9c-1.3,1.3-3.5,1.3-4.8,0c-1.3-1.3-1.3-3.5,0-4.8
		c0.5-0.5,1.2-0.8,1.9-1l0.4-0.4l9.3-9.3c-6.7-4.9-11.9,0-13.1,3.3c-1.3,3.6-6.2,4.6-6.2,4.6s-5.7-0.3-9,5.7
		C-0.3,44.3,7.4,52,7.4,52S15,59.7,22,55.9c6-3.2,5.7-9,5.7-9s1-4.9,4.6-6.2C35.6,39.6,40.4,34.3,35.6,27.7z M15.8,52.6l-9.1-9.1
		l0.7-0.7l9.1,9.1L15.8,52.6z"/>
</g>
</svg>
