<?xml version="1.0" encoding="utf-8"?>
<!-- Generator: Adobe Illustrator 19.2.1, SVG Export Plug-In . SVG Version: 6.00 Build 0)  -->
<svg version="1.1" id="Layer_1" xmlns="http://www.w3.org/2000/svg" xmlns:xlink="http://www.w3.org/1999/xlink" x="0px" y="0px"
	 viewBox="0 0 60 60" style="enable-background:new 0 0 60 60;" xml:space="preserve">
<style type="text/css">
	.st0{fill:#333333;}
	.st1{fill:none;stroke:#333333;stroke-width:2;stroke-miterlimit:10;}
	.st2{fill:#EEEEEE;}
	.st3{fill:none;stroke:#333333;stroke-width:3;stroke-miterlimit:10;}
	.st4{fill:none;stroke:#333333;stroke-width:2;stroke-linecap:round;stroke-linejoin:round;stroke-miterlimit:10;}
</style>
<g>
	<polyline class="st1" points="26.8,55.2 53.1,18.2 58.4,17.4 	"/>
	<rect x="29.1" y="47.8" transform="matrix(0.8144 0.5802 -0.5802 0.8144 36.2268 -8.2674)" class="st0" width="3.8" height="9.4"/>
	<g>
		
			<rect x="26.7" y="33.2" transform="matrix(0.5802 -0.8144 0.8144 0.5802 -7.9571 51.8011)" class="st0" width="39.1" height="0.9"/>
	</g>
</g>
<g>
	<g>
		<path class="st0" d="M24.8,36.8l-3.3-3.3l9.1-9.1c-4.5-3.8-11.5,0.9-11.5,0.9s0.4,4-0.2,6.5c-0.6,2.5-4,4-6,3.8
			c-2.1-0.1-3.5-2.5-3.5-2.5s-5,2.2-7.5,7.5C-0.7,46,3.4,52.3,3.4,52.3L8.2,45l5,5L6,54.8c0,0,6.2,4.1,11.6,1.6s7.5-7.5,7.5-7.5
			s-2.4-1.4-2.5-3.5c-0.1-2.1,1.3-5.4,3.8-6c2.5-0.6,6.5-0.2,6.5-0.2s4.7-7,0.9-11.5L24.8,36.8z M12.3,40.3
			c-0.9,0.7-2.7,0.5-2.7,0.5s-1.3-0.6-1.5-1.7c-0.2-1.1,1.1-1.7,1.1-1.7v0c0.1,0,0.2-0.1,0.2-0.1c0.4-0.1,0.8,0.1,0.9,0.4
			c0.1,0.3-0.2,0.7-0.6,0.8c-0.2,0-0.4,0-0.5,0l0,0.1c-0.9,2.1,2.4,1.3,2.4,1.3s2.7-2.2,4.8-3.9s3.3-0.8,3.9,0
			c0.6,0.8-0.4,1.6-0.4,1.6s0,0,0,0c0,0.1-0.1,0.1-0.2,0.2c-0.3,0.2-0.6,0.2-0.8,0c-0.2-0.2-0.1-0.5,0.2-0.8
			c0.2-0.2,0.4-0.2,0.6-0.1c0,0,0,0,0,0c0.3-0.1,0.7-0.5,0.1-1.1c-0.6-0.6-2,0.2-2,0.2S13.2,39.6,12.3,40.3z M14.5,39.9l3.9,3.9
			l-0.7,0.7l-3.9-3.9L14.5,39.9z M22.4,41.8c-1.7,2.1-3.9,4.8-3.9,4.8S17.6,50,19.7,49l0.1,0c-0.1-0.2-0.1-0.3,0-0.5
			c0.1-0.4,0.4-0.7,0.8-0.6c0.3,0.1,0.5,0.5,0.4,0.9c0,0.1-0.1,0.2-0.1,0.2h0c0,0-0.6,1.3-1.7,1.1c-1.1-0.2-1.7-1.5-1.7-1.5
			s-0.2-1.8,0.5-2.7s4.4-5.4,4.4-5.4s0.8-1.4,0.2-2c-0.6-0.6-1-0.2-1.1,0.1c0,0,0,0,0,0c0.1,0.2,0,0.4-0.1,0.6
			c-0.2,0.3-0.5,0.3-0.8,0.2s-0.2-0.5,0-0.8c0.1-0.1,0.1-0.1,0.2-0.2c0,0,0,0,0,0s0.8-1,1.6-0.4C23.2,38.5,24.1,39.7,22.4,41.8z"/>
	</g>
	<rect x="19.2" y="22" transform="matrix(0.7071 -0.7071 0.7071 0.7071 -6.2524 31.5194)" class="st0" width="31.4" height="2.6"/>
	<path class="st0" d="M47.3,14.2L44,10.9l8-8l3.3,3.3L47.3,14.2z M45.4,10.9l1.9,1.9l6.6-6.6L52,4.3L45.4,10.9z"/>
	<g>
		<g>
			<g>
				
					<rect x="53.2" y="7.9" transform="matrix(0.7071 -0.7071 0.7071 0.7071 9.4813 40.4781)" class="st0" width="0.9" height="1.8"/>
			</g>
			<g>
				
					<rect x="53.9" y="8.6" transform="matrix(0.7071 0.7071 -0.7071 0.7071 22.5712 -35.5972)" class="st0" width="0.8" height="1.7"/>
			</g>
		</g>
		<g>
			<g>
				
					<rect x="51.3" y="9.7" transform="matrix(0.7071 -0.7071 0.7071 0.7071 7.6372 39.7143)" class="st0" width="0.9" height="1.8"/>
			</g>
			<g>
				
					<rect x="52" y="10.4" transform="matrix(0.7071 0.7071 -0.7071 0.7071 23.335 -33.7531)" class="st0" width="0.8" height="1.7"/>
			</g>
		</g>
	</g>
	<g>
		<g>
			<g>
				
					<rect x="47.2" y="5.5" transform="matrix(0.7071 -0.7071 0.7071 0.7071 9.3643 35.5448)" class="st0" width="0.9" height="1.8"/>
			</g>
			<g>
				
					<rect x="46.6" y="4.9" transform="matrix(-0.7071 -0.7071 0.7071 -0.7071 76.0116 43.1163)" class="st0" width="0.8" height="1.7"/>
			</g>
		</g>
		<g>
			<g>
				<rect x="45.3" y="7.4" transform="matrix(0.7071 -0.7071 0.7071 0.7071 7.5202 34.781)" class="st0" width="0.9" height="1.8"/>
			</g>
			<g>
				
					<rect x="44.7" y="6.8" transform="matrix(-0.7071 -0.7071 0.7071 -0.7071 71.5596 44.9603)" class="st0" width="0.8" height="1.7"/>
			</g>
		</g>
	</g>
</g>
</svg>
