<?xml version="1.0" encoding="utf-8"?>
<!-- Generator: Adobe Illustrator 19.2.1, SVG Export Plug-In . SVG Version: 6.00 Build 0)  -->
<svg version="1.1" id="Layer_1" xmlns="http://www.w3.org/2000/svg" xmlns:xlink="http://www.w3.org/1999/xlink" x="0px" y="0px"
	 viewBox="0 0 60 60" style="enable-background:new 0 0 60 60;" xml:space="preserve">
<style type="text/css">
	.st0{fill:#333333;}
	.st1{fill:none;stroke:#333333;stroke-width:2;stroke-miterlimit:10;}
	.st2{fill:none;stroke:#333333;stroke-width:3;stroke-miterlimit:10;}
	.st3{fill:none;stroke:#333333;stroke-width:2;stroke-linecap:round;stroke-linejoin:round;stroke-miterlimit:10;}
</style>
<g>
	<g>
		<rect x="8.8" y="38.8" class="st0" width="1.7" height="14.3"/>
	</g>
	<g>
		<rect x="18.2" y="42.1" class="st0" width="1.7" height="14.5"/>
	</g>
	<g>
		<rect x="29.2" y="42.6" class="st0" width="1.7" height="15.1"/>
	</g>
	<g>
		<rect x="40.2" y="42.1" class="st0" width="1.7" height="14.5"/>
	</g>
	<g>
		<rect x="49.6" y="38.8" class="st0" width="1.7" height="14.3"/>
	</g>
	<circle class="st0" cx="30" cy="50.1" r="1.9"/>
	<circle class="st0" cx="41" cy="49.1" r="1.9"/>
	<circle class="st0" cx="50.4" cy="45.8" r="1.9"/>
	<circle class="st0" cx="19" cy="49.1" r="1.9"/>
	<circle class="st0" cx="9.6" cy="45.8" r="1.9"/>
	<g>
		<path class="st0" d="M55.6,31.7h-0.9c0.1,0.3,0.1,0.6,0.1,0.9c0,0.3,0,0.5-0.1,0.8h0.1V47c0,5.2-11.4,9.6-24.8,9.6
			S5.2,52.2,5.2,47V33.4h0.1c-0.1-0.3-0.1-0.5-0.1-0.8c0-0.3,0-0.6,0.1-0.9H4.4c-0.5,0-0.8,0.4-0.8,0.8V47
			c0,6.3,11.6,11.2,26.4,11.2S56.4,53.3,56.4,47V32.5C56.4,32.1,56.1,31.7,55.6,31.7z"/>
	</g>
	<path class="st0" d="M56.2,4.2c-0.2-0.3-0.6-0.5-1-0.5c-0.3,0-0.5,0.1-0.8,0.3L18.7,31.7c-0.5,0.4-0.6,1.2-0.2,1.7
		c0.2,0.3,0.6,0.5,1,0.5c0.3,0,0.5-0.1,0.8-0.3L56,6C56.5,5.6,56.6,4.8,56.2,4.2z"/>
	<g>
		<path class="st0" d="M29.3,22.4L5.6,4C5.3,3.9,5.1,3.8,4.8,3.8c-0.4,0-0.7,0.2-1,0.5C3.4,4.8,3.5,5.6,4,6l23.3,18L29.3,22.4z"/>
		<path class="st0" d="M32.7,25l-2,1.6l9.1,7c0.2,0.2,0.5,0.3,0.8,0.3c0.4,0,0.7-0.2,1-0.5c0.4-0.5,0.3-1.3-0.2-1.7L32.7,25z"/>
	</g>
	<path class="st0" d="M33.7,24.8l8.1,6.2c0.4,0.3,0.7,0.8,0.8,1.4c0.1,0.5-0.1,1.1-0.4,1.5c-0.4,0.5-1,0.8-1.6,0.8
		c-0.5,0-0.9-0.1-1.3-0.4L30,27.1l-9.2,7.2c-0.4,0.3-0.8,0.4-1.3,0.4c-0.6,0-1.2-0.3-1.6-0.8c-0.3-0.4-0.5-1-0.4-1.5
		c0.1-0.5,0.3-1,0.8-1.4l8.1-6.2c-11.2,0.7-19.4,4.5-19.4,7.8c0,3.7,10.1,7.9,23.1,7.9s23.1-4.2,23.1-7.9
		C53.1,29.3,44.9,25.5,33.7,24.8z"/>
	<g>
		<path class="st0" d="M30.7,21.4c-0.2,0-0.5,0-0.7,0s-0.5,0-0.7,0l0.7,0.5L30.7,21.4z"/>
		<path class="st0" d="M37,21.7l-1.9,1.5c11.1,0.9,19.7,4.8,19.7,9.3c0,5.2-11.4,9.6-24.8,9.6S5.2,37.7,5.2,32.6
			c0-4.5,8.6-8.4,19.7-9.3L23,21.7C11.7,23,3.6,27.3,3.6,32.6c0,6.3,11.6,11.2,26.4,11.2s26.4-4.9,26.4-11.2
			C56.4,27.3,48.3,23,37,21.7z"/>
	</g>
</g>
</svg>
