<?xml version="1.0" encoding="utf-8"?>
<!-- Generator: Adobe Illustrator 19.2.1, SVG Export Plug-In . SVG Version: 6.00 Build 0)  -->
<svg version="1.1" id="Layer_1" xmlns="http://www.w3.org/2000/svg" xmlns:xlink="http://www.w3.org/1999/xlink" x="0px" y="0px"
	 viewBox="0 0 60 60" style="enable-background:new 0 0 60 60;" xml:space="preserve">
<style type="text/css">
	.st0{fill:#333333;}
	.st1{fill:none;stroke:#333333;stroke-width:2;stroke-miterlimit:10;}
	.st2{fill:none;stroke:#333333;stroke-width:3;stroke-miterlimit:10;}
	.st3{fill:none;stroke:#333333;stroke-width:2;stroke-linecap:round;stroke-linejoin:round;stroke-miterlimit:10;}
</style>
<g>
	<path class="st0" d="M49,9.8L46.2,7c-0.3-0.3-0.6-0.3-1-0.1l-10.7,5.8L10.3,36.9L4.5,47.6c-0.2,0.3-0.1,0.7,0.1,1l2.7,2.7l2.6,2.6
		l41.6-41.6L49,9.8z"/>
	<path class="st0" d="M55.3,16.1l-2.6-2.6L11.2,55.1l2.6,2.6c0.3,0.3,0.8,0.3,1.2,0l40.4-40.4C55.6,17,55.6,16.4,55.3,16.1z
		 M19,52.2l-1.7-1.7l1.7-1.7l1.7,1.7L19,52.2z M22.2,49l-1.7-1.7l1.7-1.7l1.7,1.7L22.2,49z M25.4,45.7L23.7,44l1.7-1.7l1.7,1.7
		L25.4,45.7z M28.7,42.5l-1.7-1.7l1.7-1.7l1.7,1.7L28.7,42.5z M31.9,39.2l-1.7-1.7l1.7-1.7l1.7,1.7L31.9,39.2z M35.2,36l-1.7-1.7
		l1.7-1.7l1.7,1.7L35.2,36z M38.4,32.8L36.7,31l1.7-1.7l1.7,1.7L38.4,32.8z M41.6,29.5l-1.7-1.7l1.7-1.7l1.7,1.7L41.6,29.5z
		 M44.9,26.3l-1.7-1.7l1.7-1.7l1.7,1.7L44.9,26.3z M48.1,23l-1.7-1.7l1.7-1.7l1.7,1.7L48.1,23z"/>
</g>
</svg>
