<?xml version="1.0" encoding="utf-8"?>
<!-- Generator: Adobe Illustrator 19.2.1, SVG Export Plug-In . SVG Version: 6.00 Build 0)  -->
<svg version="1.1" id="Layer_1" xmlns="http://www.w3.org/2000/svg" xmlns:xlink="http://www.w3.org/1999/xlink" x="0px" y="0px"
	 viewBox="0 0 60 60" style="enable-background:new 0 0 60 60;" xml:space="preserve">
<style type="text/css">
	.st0{fill:#333333;}
	.st1{fill:none;stroke:#333333;stroke-width:2;stroke-miterlimit:10;}
</style>
<g>
	<g>
		<g>
			<path class="st0" d="M12.6,21.4c-4.2,0-7.7-3.4-7.7-7.7s3.4-7.7,7.7-7.7s7.7,3.4,7.7,7.7S16.8,21.4,12.6,21.4z M12.6,9.1
				c-2.6,0-4.7,2.1-4.7,4.7s2.1,4.7,4.7,4.7s4.7-2.1,4.7-4.7S15.1,9.1,12.6,9.1z"/>
		</g>
		<g>
			<path class="st0" d="M12.6,28.8c-1,0-1.7-1-1.7-2.3s0.7-2.3,1.7-2.3c1,0,1.7,1,1.7,2.3S13.5,28.8,12.6,28.8z"/>
		</g>
		<g>
			<path class="st0" d="M12.6,31.5c-1,0-1.7-1-1.7-2.3s0.7-2.3,1.7-2.3c1,0,1.7,1,1.7,2.3S13.5,31.5,12.6,31.5z"/>
		</g>
		<g>
			<path class="st0" d="M12.6,34.2c-1,0-1.7-1-1.7-2.3c0-1.3,0.7-2.3,1.7-2.3c1,0,1.7,1,1.7,2.3C14.3,33.2,13.5,34.2,12.6,34.2z"/>
		</g>
		<g>
			<path class="st0" d="M12.6,36.9c-1,0-1.7-1-1.7-2.3s0.7-2.3,1.7-2.3c1,0,1.7,1,1.7,2.3S13.5,36.9,12.6,36.9z"/>
		</g>
		<g>
			<path class="st0" d="M12.6,26.4c-2.1,0-7.2-9.6-7.2-12.7c0-4,3.2-7.2,7.2-7.2s7.2,3.2,7.2,7.2C19.7,16.8,14.7,26.4,12.6,26.4z
				 M12.6,8.6c-2.9,0-5.2,2.3-5.2,5.2c0,2.7,3.8,9,5.2,10.5c1.4-1.5,5.2-7.8,5.2-10.5C17.7,10.9,15.4,8.6,12.6,8.6z"/>
		</g>
		<g>
			<path class="st0" d="M13.8,39.3h-2.4c-0.6,0-1-0.4-1-1s0.4-1,1-1h2.4c0.6,0,1,0.4,1,1S14.3,39.3,13.8,39.3z"/>
		</g>
		<g>
			<path class="st0" d="M13.8,40.6h-2.4c-0.6,0-1-0.4-1-1s0.4-1,1-1h2.4c0.6,0,1,0.4,1,1S14.3,40.6,13.8,40.6z"/>
		</g>
		<g>
			<path class="st0" d="M13.8,37.9h-2.4c-0.6,0-1-0.4-1-1s0.4-1,1-1h2.4c0.6,0,1,0.4,1,1S14.3,37.9,13.8,37.9z"/>
		</g>
		<g>
			<path class="st0" d="M14.2,42.4c-0.4,0-0.7-0.2-0.9-0.5l-0.9-1.7c-0.2-0.4-0.2-0.8,0.1-1.2c0.3-0.3,0.7-0.4,1.1-0.2l2,0.9
				c0.5,0.2,0.7,0.8,0.5,1.3c-0.2,0.4-0.5,0.6-1,0.6c0,0.3-0.2,0.6-0.5,0.7C14.5,42.3,14.4,42.4,14.2,42.4z"/>
		</g>
		<g>
			<rect x="11.6" y="40.5" class="st0" width="2" height="16.7"/>
		</g>
	</g>
	<g>
		<g>
			<path class="st0" d="M30,21.4c-4.2,0-7.7-3.4-7.7-7.7s3.4-7.7,7.7-7.7s7.7,3.4,7.7,7.7S34.2,21.4,30,21.4z M30,9.1
				c-2.6,0-4.7,2.1-4.7,4.7s2.1,4.7,4.7,4.7s4.7-2.1,4.7-4.7S32.6,9.1,30,9.1z"/>
		</g>
		<g>
			<path class="st0" d="M30,28.8c-1,0-1.7-1-1.7-2.3s0.7-2.3,1.7-2.3c1,0,1.7,1,1.7,2.3S31,28.8,30,28.8z"/>
		</g>
		<g>
			<path class="st0" d="M30,31.5c-1,0-1.7-1-1.7-2.3s0.7-2.3,1.7-2.3c1,0,1.7,1,1.7,2.3S31,31.5,30,31.5z"/>
		</g>
		<g>
			<path class="st0" d="M30,34.2c-1,0-1.7-1-1.7-2.3c0-1.3,0.7-2.3,1.7-2.3c1,0,1.7,1,1.7,2.3C31.7,33.2,31,34.2,30,34.2z"/>
		</g>
		<g>
			<path class="st0" d="M30,36.9c-1,0-1.7-1-1.7-2.3s0.7-2.3,1.7-2.3c1,0,1.7,1,1.7,2.3S31,36.9,30,36.9z"/>
		</g>
		<g>
			<path class="st0" d="M30,26.4c-2.1,0-7.2-9.6-7.2-12.7c0-4,3.2-7.2,7.2-7.2c4,0,7.2,3.2,7.2,7.2C37.2,16.8,32.1,26.4,30,26.4z
				 M29.7,24.5L29.7,24.5L29.7,24.5z M30,8.6c-2.9,0-5.2,2.3-5.2,5.2c0,2.7,3.8,9,5.2,10.5c1.4-1.5,5.2-7.8,5.2-10.5
				C35.2,10.9,32.9,8.6,30,8.6z"/>
		</g>
		<g>
			<path class="st0" d="M31.2,39.3h-2.4c-0.6,0-1-0.4-1-1s0.4-1,1-1h2.4c0.6,0,1,0.4,1,1S31.7,39.3,31.2,39.3z"/>
		</g>
		<g>
			<path class="st0" d="M31.2,40.6h-2.4c-0.6,0-1-0.4-1-1s0.4-1,1-1h2.4c0.6,0,1,0.4,1,1S31.7,40.6,31.2,40.6z"/>
		</g>
		<g>
			<path class="st0" d="M31.2,37.9h-2.4c-0.6,0-1-0.4-1-1s0.4-1,1-1h2.4c0.6,0,1,0.4,1,1S31.7,37.9,31.2,37.9z"/>
		</g>
		<g>
			<path class="st0" d="M31.7,42.4c-0.4,0-0.7-0.2-0.9-0.5l-0.9-1.7c-0.2-0.4-0.2-0.8,0.1-1.2c0.3-0.3,0.7-0.4,1.1-0.2l2,0.9
				c0.5,0.2,0.7,0.8,0.5,1.3c-0.2,0.4-0.5,0.6-1,0.6c0,0.3-0.2,0.6-0.5,0.7C32,42.3,31.8,42.4,31.7,42.4z"/>
		</g>
		<g>
			<rect x="29" y="40.5" class="st0" width="2" height="16.7"/>
		</g>
	</g>
	<g>
		<g>
			<path class="st0" d="M47.4,21.4c-4.2,0-7.7-3.4-7.7-7.7s3.4-7.7,7.7-7.7s7.7,3.4,7.7,7.7S51.7,21.4,47.4,21.4z M47.4,9.1
				c-2.6,0-4.7,2.1-4.7,4.7s2.1,4.7,4.7,4.7s4.7-2.1,4.7-4.7S50,9.1,47.4,9.1z"/>
		</g>
		<g>
			<path class="st0" d="M47.4,28.8c-1,0-1.7-1-1.7-2.3s0.7-2.3,1.7-2.3s1.7,1,1.7,2.3S48.4,28.8,47.4,28.8z"/>
		</g>
		<g>
			<path class="st0" d="M47.4,31.5c-1,0-1.7-1-1.7-2.3s0.7-2.3,1.7-2.3s1.7,1,1.7,2.3S48.4,31.5,47.4,31.5z"/>
		</g>
		<g>
			<path class="st0" d="M47.4,34.2c-1,0-1.7-1-1.7-2.3c0-1.3,0.7-2.3,1.7-2.3s1.7,1,1.7,2.3C49.1,33.2,48.4,34.2,47.4,34.2z"/>
		</g>
		<g>
			<path class="st0" d="M47.4,36.9c-1,0-1.7-1-1.7-2.3s0.7-2.3,1.7-2.3s1.7,1,1.7,2.3S48.4,36.9,47.4,36.9z"/>
		</g>
		<g>
			<path class="st0" d="M47.4,26.4c-2.1,0-7.2-9.6-7.2-12.7c0-4,3.2-7.2,7.2-7.2s7.2,3.2,7.2,7.2C54.6,16.8,49.6,26.4,47.4,26.4z
				 M47.4,8.6c-2.9,0-5.2,2.3-5.2,5.2c0,2.7,3.8,9,5.2,10.5c1.4-1.5,5.2-7.8,5.2-10.5C52.6,10.9,50.3,8.6,47.4,8.6z"/>
		</g>
		<g>
			<path class="st0" d="M48.6,39.3h-2.4c-0.6,0-1-0.4-1-1s0.4-1,1-1h2.4c0.6,0,1,0.4,1,1S49.2,39.3,48.6,39.3z"/>
		</g>
		<g>
			<path class="st0" d="M48.6,40.6h-2.4c-0.6,0-1-0.4-1-1s0.4-1,1-1h2.4c0.6,0,1,0.4,1,1S49.2,40.6,48.6,40.6z"/>
		</g>
		<g>
			<path class="st0" d="M48.6,37.9h-2.4c-0.6,0-1-0.4-1-1s0.4-1,1-1h2.4c0.6,0,1,0.4,1,1S49.2,37.9,48.6,37.9z"/>
		</g>
		<g>
			<path class="st0" d="M49.1,42.4c-0.4,0-0.7-0.2-0.9-0.5l-0.9-1.7c-0.2-0.4-0.1-0.8,0.1-1.2s0.7-0.4,1.1-0.2l2,0.9
				c0.5,0.2,0.7,0.8,0.5,1.3c-0.2,0.4-0.6,0.6-1,0.6c0,0.3-0.2,0.6-0.5,0.7C49.4,42.3,49.2,42.4,49.1,42.4z"/>
		</g>
		<g>
			<rect x="46.4" y="40.5" class="st0" width="2" height="16.7"/>
		</g>
	</g>
</g>
</svg>
