<?xml version="1.0" encoding="utf-8"?>
<!-- Generator: Adobe Illustrator 19.0.0, SVG Export Plug-In . SVG Version: 6.00 Build 0)  -->
<svg version="1.1" id="Layer_1" xmlns="http://www.w3.org/2000/svg" xmlns:xlink="http://www.w3.org/1999/xlink" x="0px" y="0px"
	 viewBox="0 0 121 167.2" style="enable-background:new 0 0 121 167.2;" xml:space="preserve">
<style type="text/css">
	.st0{fill:#CCCCCC;}
</style>
<g>
	<g>
		<path class="st0" d="M121,167.2H0V40.5h121V167.2z M13.9,153.2H107V54.4H13.9V153.2z"/>
	</g>
	<g>
		<path class="st0" d="M60.5,108.7c-16,0-29.1-13-29.1-29.1V63.9h9.3v15.7c0,10.9,8.9,19.8,19.8,19.8s19.8-8.9,19.8-19.8V63.9h9.3
			v15.7C89.5,95.6,76.5,108.7,60.5,108.7z"/>
	</g>
	<path class="st0" d="M60.5,0C44.9,0,32.2,12.7,32.2,28.3c0,7.4,2.8,14.1,7.5,19.2h41.5c4.7-5,7.5-11.8,7.5-19.2
		C88.8,12.7,76.1,0,60.5,0z M51.2,16.4c2.4,0,4.3,1.9,4.3,4.3c0,2.4-1.9,4.3-4.3,4.3c-2.4,0-4.3-1.9-4.3-4.3
		C46.9,18.3,48.8,16.4,51.2,16.4z M60.5,38.2c-4.8,0-9.2,0.7-13.1,2c3.1-3.9,7.8-6.4,13.1-6.4c5.3,0,10,2.5,13.1,6.4
		C69.7,39,65.2,38.2,60.5,38.2z M69.7,25c-2.4,0-4.3-1.9-4.3-4.3c0-2.4,1.9-4.3,4.3-4.3c2.4,0,4.3,1.9,4.3,4.3
		C74,23.1,72.1,25,69.7,25z"/>
	<g>
		<circle class="st0" cx="19.5" cy="40.5" r="7"/>
		<circle class="st0" cx="101.4" cy="40.5" r="7"/>
	</g>
</g>
</svg>
