<?xml version="1.0" encoding="utf-8"?>
<!-- Generator: Adobe Illustrator 19.0.0, SVG Export Plug-In . SVG Version: 6.00 Build 0)  -->
<svg version="1.1" id="Layer_1" xmlns="http://www.w3.org/2000/svg" xmlns:xlink="http://www.w3.org/1999/xlink" x="0px" y="0px"
	 viewBox="-461 263 36 36" style="enable-background:new -461 263 36 36;" xml:space="preserve">
<style type="text/css">
	.st0{fill:#989898;}
</style>
<path id="XMLID_479_" class="st0" d="M-443,263c-9.9,0-18,8-18,18c0,9.9,8.1,18,18,18s18-8.1,18-18C-425,271-433.1,263-443,263z
	 M-439.1,281h-2.5c0,4,0,9,0,9h-3.7c0,0,0-4.9,0-9h-1.8v-3.2h1.8v-2.1c0-1.5,0.7-3.8,3.8-3.8h2.8v3.1c0,0-1.7,0-2,0
	c-0.3,0-0.8,0.2-0.8,0.9v1.9h2.8L-439.1,281z"/>
</svg>
