<?xml version="1.0" encoding="utf-8"?>
<!-- Generator: Adobe Illustrator 19.0.0, SVG Export Plug-In . SVG Version: 6.00 Build 0)  -->
<svg version="1.1" id="Layer_1" xmlns="http://www.w3.org/2000/svg" xmlns:xlink="http://www.w3.org/1999/xlink" x="0px" y="0px"
	 viewBox="-461 263 36 36" style="enable-background:new -461 263 36 36;" xml:space="preserve">
<style type="text/css">
	.st0{fill:#999999;}
</style>
<g id="XMLID_472_">
	<path id="XMLID_478_" class="st0" d="M-442.2,279.7L-442.2,279.7C-442.2,279.6-442.2,279.7-442.2,279.7L-442.2,279.7z"/>
	<path id="XMLID_473_" class="st0" d="M-443.3,263c-9.9,0-18,8-18,18c0,9.9,8.1,18,18,18s18-8.1,18-18
		C-425.3,271-433.4,263-443.3,263z M-448.2,289.6h-3.9V278h3.9V289.6z M-450.1,276.4L-450.1,276.4c-1.3,0-2.2-0.9-2.2-2s0.9-2,2.2-2
		c1.3,0,2.1,0.9,2.2,2C-448,275.5-448.8,276.4-450.1,276.4z M-434.3,289.6h-3.9v-6.2c0-1.6-0.6-2.6-2-2.6c-1.1,0-1.7,0.7-2,1.4
		c-0.1,0.2-0.1,0.6-0.1,0.9v6.5h-3.9c0,0,0-10.5,0-11.6h3.9v1.6c0.5-0.8,1.4-1.9,3.5-1.9c2.5,0,4.4,1.7,4.4,5.2v6.7H-434.3z"/>
</g>
</svg>
