<?xml version="1.0" encoding="utf-8"?>
<!-- Generator: Adobe Illustrator 19.0.0, SVG Export Plug-In . SVG Version: 6.00 Build 0)  -->
<svg version="1.1" id="Layer_1" xmlns="http://www.w3.org/2000/svg" xmlns:xlink="http://www.w3.org/1999/xlink" x="0px" y="0px"
	 viewBox="0 0 87.6 90" style="enable-background:new 0 0 87.6 90;" xml:space="preserve">
<style type="text/css">
	.st0{fill:#FFFFFF;}
</style>
<g>
	<polygon class="st0" points="43.7,63 43.1,64.7 44.5,64.7 43.9,63 	"/>
	<path class="st0" d="M25.6,36.4c-4.1,0-7.4,3.3-7.4,7.4v20.7c0,4.1,3.3,7.4,7.4,7.4c4.1,0,7.4-3.3,7.4-7.4V43.7
		C32.9,39.7,29.6,36.4,25.6,36.4z M28,62.7h-1.2v4.5c0,0.7-0.4,1.1-1.2,1.1c-0.8,0-1.2-0.4-1.2-1.1v-4.5h-1.2
		c-0.8,0-1.2-0.4-1.2-1.1s0.4-1.1,1.2-1.1H28c0.8,0,1.2,0.4,1.2,1.1S28.8,62.7,28,62.7z"/>
	<path class="st0" d="M43.8,18.6c-4.1,0-7.4,3.3-7.4,7.4v38.5c0,4.1,3.3,7.4,7.4,7.4s7.4-3.3,7.4-7.4V25.9
		C51.2,21.8,47.9,18.6,43.8,18.6z M46.6,68.5c-0.6,0-1.1-0.4-1.3-1.1L45,66.7h-2.3l-0.3,0.7c-0.3,0.7-0.7,1.1-1.3,1.1
		c-0.7,0-1.2-0.5-1.2-1.1c0-0.3,0.3-1,0.3-1l1.8-4.7c0.3-0.8,0.8-1.3,2-1.3s1.6,0.5,2,1.3l1.8,4.7c0,0,0.3,0.7,0.3,1
		C47.8,68,47.3,68.5,46.6,68.5z"/>
	<path class="st0" d="M7.4,57.1c-4.1,0-7.4,3.3-7.4,7.4c0,4.1,3.3,7.4,7.4,7.4s7.4-3.3,7.4-7.4C14.7,60.4,11.4,57.1,7.4,57.1z
		 M7.1,68.3c-1.9,0-3-1.1-3-1.8c0-0.6,0.4-0.9,1.2-0.9c0.8,0,0.9,0.7,1.8,0.7c0.8,0,1.1-0.3,1.1-0.5c0-0.6-3.9-0.3-3.9-2.8
		c0-1.4,1.1-2.4,3.2-2.4c1.8,0,2.9,1.1,2.9,1.8c0,0.6-0.4,0.9-1.2,0.9c-0.8,0-0.9-0.7-1.7-0.7c-0.5,0-0.7,0.2-0.7,0.4
		c0,0.7,3.9,0.4,3.9,2.8C10.6,67.2,9.4,68.3,7.1,68.3z"/>
	<path class="st0" d="M62,0c-4.1,0-7.4,3.3-7.4,7.4v75.3c0,4.1,3.3,7.4,7.4,7.4c4.1,0,7.4-3.3,7.4-7.4V7.4C69.4,3.3,66.1,0,62,0z
		 M65.5,66.7c0,0.8-1.2,1.9-3.3,1.9c-2.3,0-3.7-1.4-3.7-3.3v-1.6c0-1.9,1.4-3.3,3.7-3.3c2,0,3.1,1.1,3.1,1.9c0,0.6-0.4,1-1.2,1
		c-0.9,0-1-0.8-1.8-0.8c-0.7,0-1.2,0.5-1.2,1.2v1.6c0,0.7,0.5,1.2,1.2,1.2c0.6,0,1.1-0.3,1.1-0.3v-0.4H63c-0.7,0-1.1-0.4-1.1-1
		s0.4-1,1.1-1h1.6c0.7,0,1,0.3,1,1V66.7z"/>
	<path class="st0" d="M80.3,57.1c-4.1,0-7.4,3.3-7.4,7.4c0,4.1,3.3,7.4,7.4,7.4c4.1,0,7.4-3.3,7.4-7.4
		C87.6,60.4,84.3,57.1,80.3,57.1z M82.3,68h-4c-0.7,0-1.1-0.4-1.1-1v-5.1c0-0.6,0.4-1,1.1-1h3.9c0.7,0,1.1,0.4,1.1,1s-0.4,1-1.1,1
		h-2.8v0.6h2c0.6,0,1,0.4,1,0.9c0,0.5-0.4,0.9-1,0.9h-2V66h2.9c0.7,0,1.1,0.4,1.1,1C83.4,67.6,83,68,82.3,68z"/>
</g>
</svg>
