<?xml version="1.0" encoding="utf-8"?>
<!-- Generator: Adobe Illustrator 19.0.0, SVG Export Plug-In . SVG Version: 6.00 Build 0)  -->
<svg version="1.1" id="Layer_1" xmlns="http://www.w3.org/2000/svg" xmlns:xlink="http://www.w3.org/1999/xlink" x="0px" y="0px"
	 viewBox="0 0 105.8 14.7" style="enable-background:new 0 0 105.8 14.7;" xml:space="preserve">
<style type="text/css">
	.st0{fill:#333333;}
	.st1{fill:#FFFFFF;}
</style>
<g>
	<path class="st0" d="M87.6,7.4L87.6,7.4c0,4.1-3.3,7.4-7.4,7.4c-4.1,0-7.4-3.3-7.4-7.4v0c0-4.1,3.3-7.4,7.4-7.4
		C84.3,0,87.6,3.3,87.6,7.4z M62,0c-4.1,0-7.4,3.3-7.4,7.4v0c0,4.1,3.3,7.4,7.4,7.4c4.1,0,7.4-3.3,7.4-7.4v0C69.4,3.3,66.1,0,62,0z
		 M43.8,0c-4.1,0-7.4,3.3-7.4,7.4v0c0,4.1,3.3,7.4,7.4,7.4c4.1,0,7.4-3.3,7.4-7.4v0C51.1,3.3,47.8,0,43.8,0z M25.6,0
		c-4.1,0-7.4,3.3-7.4,7.4v0c0,4.1,3.3,7.4,7.4,7.4c4.1,0,7.4-3.3,7.4-7.4v0C32.9,3.3,29.6,0,25.6,0z M7.3,0C3.3,0,0,3.3,0,7.4v0
		c0,4.1,3.3,7.4,7.4,7.4c4.1,0,7.4-3.3,7.4-7.4v0C14.7,3.3,11.4,0,7.3,0z M98.4,0c-4.1,0-7.4,3.3-7.4,7.4s3.3,7.4,7.4,7.4
		c4.1,0,7.4-3.3,7.4-7.4S102.5,0,98.4,0z"/>
	<g>
		<path class="st1" d="M22.5,5.9c0-1.4,1.1-2.4,3.2-2.4c1.8,0,2.9,1.1,2.9,1.8c0,0.6-0.4,0.9-1.2,0.9c-0.8,0-0.9-0.7-1.7-0.7
			c-0.5,0-0.7,0.2-0.7,0.4c0,0.7,3.9,0.4,3.9,2.8c0,1.4-1.2,2.5-3.5,2.5c-1.9,0-3-1.1-3-1.8c0-0.6,0.4-0.9,1.2-0.9
			c0.8,0,0.9,0.7,1.8,0.7c0.8,0,1.1-0.3,1.1-0.5C26.4,8.1,22.5,8.4,22.5,5.9z"/>
		<path class="st1" d="M41.4,5.7c-0.8,0-1.2-0.4-1.2-1.1c0-0.7,0.4-1.1,1.2-1.1h4.8c0.8,0,1.2,0.4,1.2,1.1c0,0.7-0.4,1.1-1.2,1.1H45
			v4.5c0,0.7-0.4,1.1-1.2,1.1c-0.8,0-1.2-0.4-1.2-1.1V5.7H41.4z"/>
		<path class="st1" d="M60.5,10.3c-0.3,0.7-0.7,1.1-1.3,1.1c-0.7,0-1.2-0.5-1.2-1.1c0-0.3,0.3-1,0.3-1L60,4.6c0.3-0.8,0.8-1.3,2-1.3
			s1.6,0.5,2,1.3l1.8,4.7c0,0,0.3,0.7,0.3,1c0,0.6-0.5,1.1-1.2,1.1c-0.6,0-1.1-0.4-1.3-1.1l-0.3-0.7h-2.3L60.5,10.3z M62.7,7.6
			L62.1,6h-0.1l-0.6,1.7H62.7z"/>
		<path class="st1" d="M76.7,6.6c0-1.9,1.4-3.3,3.7-3.3c2,0,3.1,1.1,3.1,1.9c0,0.6-0.4,1-1.2,1c-0.9,0-1-0.8-1.8-0.8
			c-0.7,0-1.2,0.5-1.2,1.2v1.6c0,0.7,0.5,1.2,1.2,1.2c0.6,0,1.1-0.3,1.1-0.3V8.6h-0.3c-0.7,0-1.1-0.4-1.1-1s0.4-1,1.1-1h1.6
			c0.7,0,1,0.3,1,1v2c0,0.8-1.2,1.9-3.3,1.9c-2.3,0-3.7-1.4-3.7-3.3V6.6z"/>
		<path class="st1" d="M97.6,5.8v0.6h2c0.6,0,1,0.4,1,0.9c0,0.5-0.4,0.9-1,0.9h-2v0.6h2.9c0.7,0,1.1,0.4,1.1,1c0,0.6-0.4,1-1.1,1h-4
			c-0.7,0-1.1-0.4-1.1-1V4.8c0-0.6,0.4-1,1.1-1h3.9c0.7,0,1.1,0.4,1.1,1c0,0.6-0.4,1-1.1,1H97.6z"/>
	</g>
	<g>
		<path class="st1" d="M9.4,10.4c0,0.7-0.5,1.1-1.2,1.1S7,11,7,10.4V9.7H4.1c-0.8,0-1.2-0.5-1.2-1.1c0-0.6,0.5-1.1,0.5-1.1l2-2.7
			c0.7-0.9,1.2-1.5,2.5-1.5c0.9,0,1.6,0.7,1.6,1.5v2.7c0.7,0,1.1,0.5,1.1,1.1c0,0.7-0.5,1.1-1.1,1.1V10.4z M7,7.4V6H6.8l-1,1.2v0.1
			H7z"/>
	</g>
</g>
</svg>
