<?xml version="1.0" encoding="utf-8"?>
<!-- Generator: Adobe Illustrator 19.0.0, SVG Export Plug-In . SVG Version: 6.00 Build 0)  -->
<svg version="1.1" id="Layer_1" xmlns="http://www.w3.org/2000/svg" xmlns:xlink="http://www.w3.org/1999/xlink" x="0px" y="0px"
	 viewBox="-435 236 87.6 90" style="enable-background:new -435 236 87.6 90;" xml:space="preserve">
<style type="text/css">
	.st0{fill:#999999;}
</style>
<g id="XMLID_340_">
	<polygon id="XMLID_356_" class="st0" points="-391.3,299 -391.9,300.7 -390.5,300.7 -391.1,299 	"/>
	<path id="XMLID_353_" class="st0" d="M-409.4,272.4c-4.1,0-7.4,3.3-7.4,7.4v20.7c0,4.1,3.3,7.4,7.4,7.4s7.4-3.3,7.4-7.4v-20.8
		C-402.1,275.7-405.4,272.4-409.4,272.4z M-407,298.7h-1.2v4.5c0,0.7-0.4,1.1-1.2,1.1c-0.8,0-1.2-0.4-1.2-1.1v-4.5h-1.2
		c-0.8,0-1.2-0.4-1.2-1.1c0-0.7,0.4-1.1,1.2-1.1h4.8c0.8,0,1.2,0.4,1.2,1.1C-405.8,298.3-406.2,298.7-407,298.7z"/>
	<path id="XMLID_350_" class="st0" d="M-391.2,254.6c-4.1,0-7.4,3.3-7.4,7.4v38.5c0,4.1,3.3,7.4,7.4,7.4c4.1,0,7.4-3.3,7.4-7.4
		v-38.6C-383.8,257.8-387.1,254.6-391.2,254.6z M-388.4,304.5c-0.6,0-1.1-0.4-1.3-1.1l-0.3-0.7h-2.3l-0.3,0.7
		c-0.3,0.7-0.7,1.1-1.3,1.1c-0.7,0-1.2-0.5-1.2-1.1c0-0.3,0.3-1,0.3-1l1.8-4.7c0.3-0.8,0.8-1.3,2-1.3s1.6,0.5,2,1.3l1.8,4.7
		c0,0,0.3,0.7,0.3,1C-387.2,304-387.7,304.5-388.4,304.5z"/>
	<path id="XMLID_347_" class="st0" d="M-427.6,293.1c-4.1,0-7.4,3.3-7.4,7.4s3.3,7.4,7.4,7.4s7.4-3.3,7.4-7.4
		C-420.3,296.4-423.6,293.1-427.6,293.1z M-427.9,304.3c-1.9,0-3-1.1-3-1.8c0-0.6,0.4-0.9,1.2-0.9c0.8,0,0.9,0.7,1.8,0.7
		c0.8,0,1.1-0.3,1.1-0.5c0-0.6-3.9-0.3-3.9-2.8c0-1.4,1.1-2.4,3.2-2.4c1.8,0,2.9,1.1,2.9,1.8c0,0.6-0.4,0.9-1.2,0.9
		c-0.8,0-0.9-0.7-1.7-0.7c-0.5,0-0.7,0.2-0.7,0.4c0,0.7,3.9,0.4,3.9,2.8C-424.4,303.2-425.6,304.3-427.9,304.3z"/>
	<path id="XMLID_344_" class="st0" d="M-373,236c-4.1,0-7.4,3.3-7.4,7.4v75.3c0,4.1,3.3,7.4,7.4,7.4s7.4-3.3,7.4-7.4v-75.3
		C-365.6,239.3-368.9,236-373,236z M-369.5,302.7c0,0.8-1.2,1.9-3.3,1.9c-2.3,0-3.7-1.4-3.7-3.3v-1.6c0-1.9,1.4-3.3,3.7-3.3
		c2,0,3.1,1.1,3.1,1.9c0,0.6-0.4,1-1.2,1c-0.9,0-1-0.8-1.8-0.8c-0.7,0-1.2,0.5-1.2,1.2v1.6c0,0.7,0.5,1.2,1.2,1.2
		c0.6,0,1.1-0.3,1.1-0.3v-0.4h-0.4c-0.7,0-1.1-0.4-1.1-1c0-0.6,0.4-1,1.1-1h1.6c0.7,0,1,0.3,1,1v1.9H-369.5z"/>
	<path id="XMLID_341_" class="st0" d="M-354.7,293.1c-4.1,0-7.4,3.3-7.4,7.4s3.3,7.4,7.4,7.4c4.1,0,7.4-3.3,7.4-7.4
		C-347.4,296.4-350.7,293.1-354.7,293.1z M-352.7,304h-4c-0.7,0-1.1-0.4-1.1-1v-5.1c0-0.6,0.4-1,1.1-1h3.9c0.7,0,1.1,0.4,1.1,1
		s-0.4,1-1.1,1h-2.8v0.6h2c0.6,0,1,0.4,1,0.9s-0.4,0.9-1,0.9h-2v0.7h2.9c0.7,0,1.1,0.4,1.1,1S-352,304-352.7,304z"/>
</g>
</svg>
