<?xml version="1.0" encoding="utf-8"?>
<!-- Generator: Adobe Illustrator 19.2.1, SVG Export Plug-In . SVG Version: 6.00 Build 0)  -->
<svg version="1.1" id="Layer_1" xmlns="http://www.w3.org/2000/svg" xmlns:xlink="http://www.w3.org/1999/xlink" x="0px" y="0px"
	 viewBox="0 0 60 60" style="enable-background:new 0 0 60 60;" xml:space="preserve">
<style type="text/css">
	.st0{fill:#333333;stroke:#333333;stroke-width:2;stroke-miterlimit:10;}
	.st1{fill:#EEEEEE;}
	.st2{fill:none;stroke:#333333;stroke-width:2;stroke-miterlimit:10;}
	.st3{fill:#333333;}
	.st4{fill:none;stroke:#EEEEEE;stroke-miterlimit:10;}
	.st5{fill:#333333;stroke:#EEEEEE;stroke-miterlimit:10;}
	.st6{fill:#EEEEEE;stroke:#333333;stroke-miterlimit:10;}
	.st7{fill:none;stroke:#333333;stroke-width:3;stroke-miterlimit:10;}
	.st8{fill:none;stroke:#333333;stroke-width:2;stroke-linecap:round;stroke-linejoin:round;stroke-miterlimit:10;}
	.st9{fill:none;stroke:#333333;stroke-miterlimit:10;}
	.st10{fill:#333333;stroke:#333333;stroke-miterlimit:10;}
</style>
<g>
	<path class="st3" d="M30,22.2c-2.5,0-4.5-2-4.5-4.5s2-4.5,4.5-4.5s4.5,2,4.5,4.5S32.5,22.2,30,22.2z M30,14.3
		c-1.9,0-3.5,1.6-3.5,3.5s1.6,3.5,3.5,3.5s3.5-1.6,3.5-3.5S31.9,14.3,30,14.3z"/>
	<circle class="st3" cx="30" cy="17.7" r="1.5"/>
	<path class="st3" d="M41.9,5.9H18.1c-3.2,0-5.9,2.6-5.9,5.9v39.5c0,3.2,2.6,5.9,5.9,5.9h23.9c3.2,0,5.9-2.6,5.9-5.9V11.8
		C47.8,8.6,45.2,5.9,41.9,5.9z M30,12.1c3.1,0,5.6,2.5,5.6,5.6s-2.5,5.6-5.6,5.6s-5.6-2.5-5.6-5.6S26.9,12.1,30,12.1z M16.7,8.9
		c0.8,0,1.5,0.7,1.5,1.5s-0.7,1.5-1.5,1.5s-1.5-0.7-1.5-1.5S15.9,8.9,16.7,8.9z M16.7,54.2c-0.8,0-1.5-0.7-1.5-1.5s0.7-1.5,1.5-1.5
		s1.5,0.7,1.5,1.5S17.5,54.2,16.7,54.2z M30,50.9c-6.5,0-11.8-5.3-11.8-11.8S23.5,27.4,30,27.4s11.8,5.3,11.8,11.8
		S36.5,50.9,30,50.9z M43.3,54.2c-0.8,0-1.5-0.7-1.5-1.5s0.7-1.5,1.5-1.5s1.5,0.7,1.5,1.5S44.1,54.2,43.3,54.2z M43.3,11.9
		c-0.8,0-1.5-0.7-1.5-1.5s0.7-1.5,1.5-1.5s1.5,0.7,1.5,1.5S44.1,11.9,43.3,11.9z"/>
	<path class="st3" d="M30,49.4c-5.7,0-10.3-4.6-10.3-10.3c0-5.7,4.6-10.3,10.3-10.3c5.7,0,10.3,4.6,10.3,10.3
		C40.3,44.8,35.7,49.4,30,49.4z M30,30.9c-4.6,0-8.3,3.7-8.3,8.3s3.7,8.3,8.3,8.3c4.6,0,8.3-3.7,8.3-8.3S34.6,30.9,30,30.9z"/>
	<circle class="st3" cx="30" cy="39.2" r="3.2"/>
</g>
</svg>
