<?xml version="1.0" encoding="utf-8"?>
<!-- Generator: Adobe Illustrator 19.2.1, SVG Export Plug-In . SVG Version: 6.00 Build 0)  -->
<svg version="1.1" id="Layer_1" xmlns="http://www.w3.org/2000/svg" xmlns:xlink="http://www.w3.org/1999/xlink" x="0px" y="0px"
	 viewBox="0 0 60 60" style="enable-background:new 0 0 60 60;" xml:space="preserve">
<style type="text/css">
	.st0{fill:#333333;stroke:#333333;stroke-width:2;stroke-miterlimit:10;}
	.st1{fill:#EEEEEE;}
	.st2{fill:none;stroke:#333333;stroke-width:2;stroke-miterlimit:10;}
	.st3{fill:#333333;}
	.st4{fill:none;stroke:#EEEEEE;stroke-miterlimit:10;}
	.st5{fill:#333333;stroke:#EEEEEE;stroke-miterlimit:10;}
	.st6{fill:#EEEEEE;stroke:#333333;stroke-miterlimit:10;}
	.st7{fill:none;stroke:#333333;stroke-width:3;stroke-miterlimit:10;}
	.st8{fill:none;stroke:#333333;stroke-width:2;stroke-linecap:round;stroke-linejoin:round;stroke-miterlimit:10;}
	.st9{fill:none;stroke:#333333;stroke-miterlimit:10;}
	.st10{fill:#333333;stroke:#333333;stroke-miterlimit:10;}
</style>
<g>
	<path class="st3" d="M50.8,5.9H9.2c-2.2,0-4,1.8-4,4v14.8c0,2.2,1.8,4,4,4h3c0,0,0,0,0,0v1.1c0,0.5,0.4,0.9,0.9,0.9h6.1
		c0.5,0,0.9-0.4,0.9-0.9v-1.1c0,0,0,0,0,0h19.7c0,0,0,0,0,0v1.1c0,0.5,0.4,0.9,0.9,0.9h6.1c0.5,0,0.9-0.4,0.9-0.9v-1.1c0,0,0,0,0,0
		h3c2.2,0,4-1.8,4-4V9.9C54.8,7.7,53,5.9,50.8,5.9z M17.5,11.9h25v10.9h-25V11.9z M8.5,17.3c0-1.5,1.2-2.7,2.7-2.7
		c1.5,0,2.7,1.2,2.7,2.7c0,1.5-1.2,2.7-2.7,2.7C9.7,20.1,8.5,18.8,8.5,17.3z M48.8,20.1c-1.5,0-2.7-1.2-2.7-2.7
		c0-1.5,1.2-2.7,2.7-2.7c1.5,0,2.7,1.2,2.7,2.7C51.5,18.8,50.3,20.1,48.8,20.1z"/>
	<path class="st3" d="M50.8,32.4H9.2c-2.2,0-4,1.8-4,4v14.8c0,2.2,1.8,4,4,4h3c0,0,0,0,0,0v1.1c0,0.5,0.4,0.9,0.9,0.9h6.1
		c0.5,0,0.9-0.4,0.9-0.9v-1.1c0,0,0,0,0,0h19.7c0,0,0,0,0,0v1.1c0,0.5,0.4,0.9,0.9,0.9h6.1c0.5,0,0.9-0.4,0.9-0.9v-1.1c0,0,0,0,0,0
		h3c2.2,0,4-1.8,4-4V36.4C54.8,34.2,53,32.4,50.8,32.4z M10.1,49.2c-0.9,0-1.6-0.7-1.6-1.6c0-0.9,0.7-1.6,1.6-1.6s1.6,0.7,1.6,1.6
		C11.7,48.5,11,49.2,10.1,49.2z M14.4,47.6c0-0.9,0.7-1.6,1.6-1.6c0.9,0,1.6,0.7,1.6,1.6c0,0.9-0.7,1.6-1.6,1.6
		C15.1,49.2,14.4,48.5,14.4,47.6z M21.9,49.2c-0.9,0-1.6-0.7-1.6-1.6c0-0.9,0.7-1.6,1.6-1.6c0.9,0,1.6,0.7,1.6,1.6
		C23.5,48.5,22.8,49.2,21.9,49.2z M23.5,42.2h-15v-3.9h15V42.2z M51.5,49.2h-25V38.3h25V49.2z"/>
</g>
</svg>
