<?xml version="1.0" encoding="utf-8"?>
<!-- Generator: Adobe Illustrator 19.2.1, SVG Export Plug-In . SVG Version: 6.00 Build 0)  -->
<svg version="1.1" id="Layer_1" xmlns="http://www.w3.org/2000/svg" xmlns:xlink="http://www.w3.org/1999/xlink" x="0px" y="0px"
	 viewBox="0 0 60 60" style="enable-background:new 0 0 60 60;" xml:space="preserve">
<style type="text/css">
	.st0{fill:#333333;stroke:#333333;stroke-width:2;stroke-miterlimit:10;}
	.st1{fill:#EEEEEE;}
	.st2{fill:none;stroke:#333333;stroke-width:2;stroke-miterlimit:10;}
	.st3{fill:#333333;}
	.st4{fill:none;stroke:#EEEEEE;stroke-miterlimit:10;}
	.st5{fill:#333333;stroke:#EEEEEE;stroke-miterlimit:10;}
	.st6{fill:#EEEEEE;stroke:#333333;stroke-miterlimit:10;}
	.st7{fill:none;stroke:#333333;stroke-width:3;stroke-miterlimit:10;}
	.st8{fill:none;stroke:#333333;stroke-width:2;stroke-linecap:round;stroke-linejoin:round;stroke-miterlimit:10;}
	.st9{fill:none;stroke:#333333;stroke-miterlimit:10;}
	.st10{fill:#333333;stroke:#333333;stroke-miterlimit:10;}
</style>
<g>
	<g>
		<g>
			<path class="st3" d="M55.6,57.2H4.4V6h51.2V57.2z M6,55.6H54V7.6H6V55.6z"/>
		</g>
	</g>
	<g>
		<path class="st3" d="M16.2,33.6v-19c0-0.6-0.4-1-1-1h0c-0.6,0-1,0.4-1,1v19H16.2z"/>
		<path class="st3" d="M14.2,39v9.7c0,0.6,0.4,1,1,1h0c0.6,0,1-0.4,1-1V39H14.2z"/>
	</g>
	<g>
		<path class="st3" d="M31.5,33.6v-19c0-0.6-0.4-1-1-1h0c-0.6,0-1,0.4-1,1v19H31.5z"/>
		<path class="st3" d="M29.5,39v9.7c0,0.6,0.4,1,1,1h0c0.6,0,1-0.4,1-1V39H29.5z"/>
	</g>
	<rect x="19.8" y="21.4" class="st3" width="6.2" height="3.4"/>
	<g>
		<path class="st3" d="M39.1,39.3V14.6c0-0.6-0.4-1-1-1h0c-0.6,0-1,0.4-1,1v24.7H39.1z"/>
		<path class="st3" d="M37.1,44.6v4c0,0.6,0.4,1,1,1h0c0.6,0,1-0.4,1-1v-4H37.1z"/>
	</g>
	<g>
		<path class="st3" d="M46.7,25.1V14.6c0-0.6-0.4-1-1-1h0c-0.6,0-1,0.4-1,1v10.6H46.7z"/>
		<path class="st3" d="M44.7,30.5v18.1c0,0.6,0.4,1,1,1h0c0.6,0,1-0.4,1-1V30.5H44.7z"/>
	</g>
	<g>
		<path class="st3" d="M23.9,20.4v-5.8c0-0.6-0.4-1-1-1h0c-0.6,0-1,0.4-1,1v5.8H23.9z"/>
		<path class="st3" d="M21.9,25.7v22.9c0,0.6,0.4,1,1,1h0c0.6,0,1-0.4,1-1V25.7H21.9z"/>
	</g>
	<rect x="12.2" y="34.6" class="st3" width="6.2" height="3.4"/>
	<rect x="27.4" y="34.6" class="st3" width="6.2" height="3.4"/>
	<rect x="35" y="40.3" class="st3" width="6.2" height="3.4"/>
	<rect x="42.7" y="26.1" class="st3" width="6.2" height="3.4"/>
</g>
</svg>
