<?xml version="1.0" encoding="utf-8"?>
<!-- Generator: Adobe Illustrator 19.2.1, SVG Export Plug-In . SVG Version: 6.00 Build 0)  -->
<svg version="1.1" id="Layer_1" xmlns="http://www.w3.org/2000/svg" xmlns:xlink="http://www.w3.org/1999/xlink" x="0px" y="0px"
	 viewBox="0 0 60 60" style="enable-background:new 0 0 60 60;" xml:space="preserve">
<style type="text/css">
	.st0{fill:#333333;stroke:#333333;stroke-width:2;stroke-miterlimit:10;}
	.st1{fill:#EEEEEE;}
	.st2{fill:none;stroke:#333333;stroke-width:2;stroke-miterlimit:10;}
	.st3{fill:#333333;}
	.st4{fill:none;stroke:#EEEEEE;stroke-miterlimit:10;}
	.st5{fill:#333333;stroke:#EEEEEE;stroke-miterlimit:10;}
	.st6{fill:#EEEEEE;stroke:#333333;stroke-miterlimit:10;}
	.st7{fill:none;stroke:#333333;stroke-width:3;stroke-miterlimit:10;}
	.st8{fill:none;stroke:#333333;stroke-width:2;stroke-linecap:round;stroke-linejoin:round;stroke-miterlimit:10;}
	.st9{fill:none;stroke:#333333;stroke-miterlimit:10;}
	.st10{fill:#333333;stroke:#333333;stroke-miterlimit:10;}
</style>
<g>
	<path class="st3" d="M53.4,18.1c1.6-3.2,1.1-7.2-1.6-9.9c-2.7-2.7-6.7-3.2-9.9-1.6L53.4,18.1z"/>
	<path class="st3" d="M41,7.1c-0.4,0.3-0.9,0.6-1.3,1c-2.5,2.5-3.1,6.1-1.9,9.1l4.9,4.9c3.1,1.2,6.7,0.5,9.1-1.9
		c0.4-0.4,0.7-0.8,1-1.3L41,7.1z"/>
	<g>
		<path class="st3" d="M51.3,51.6c-2.8-1.2-5.7-2.4-8.6-3.3c-3.1-1-6.5-2-10.1-1.9c-3.8,0.1-7.8,1.4-12,3.9
			c-0.4,0.3-0.9,0.5-1.3,0.8c-1.9,1.2-3.7,2.3-5.7,2.7c-2.2,0.4-5-0.3-5.7-2.4C7.3,50,8,48.3,8.8,47.3c1-1.3,2.5-2.2,4-3.1
			c0.9-0.5,2-1.2,3.2-1.9c1.7-1,3.6-2.2,5.3-3.1l-1.5-1.5c-1.6,0.9-3.3,1.9-4.9,2.9c-1.2,0.7-2.3,1.4-3.1,1.9
			c-1.7,0.9-3.4,2-4.6,3.6c-1.4,1.9-1.9,4.2-1.2,6.1c1,2.6,3.7,3.8,6.3,3.8c0.6,0,1.1-0.1,1.7-0.2c2.4-0.5,4.4-1.7,6.3-3
			c0.4-0.3,0.8-0.5,1.3-0.8c3.9-2.3,7.6-3.6,11-3.7c3.2-0.1,6.4,0.8,9.4,1.8c2.9,0.9,5.7,2,8.4,3.3c0.5,0.2,1.1,0,1.3-0.5
			C52,52.4,51.8,51.8,51.3,51.6z"/>
	</g>
	<g>
		<path class="st3" d="M21.4,31.8l-1.4,1.4c-0.9,0.9-0.9,2.3,0,3.2l3.6,3.6c0.4,0.4,1,0.7,1.6,0.7s1.2-0.2,1.6-0.7l1.4-1.4
			L21.4,31.8z"/>
		
			<rect x="22.6" y="22.7" transform="matrix(0.7071 -0.7071 0.7071 0.7071 -9.924 31.0293)" class="st3" width="19.9" height="9.6"/>
	</g>
</g>
</svg>
