<?xml version="1.0" encoding="utf-8"?>
<!-- Generator: Adobe Illustrator 19.2.1, SVG Export Plug-In . SVG Version: 6.00 Build 0)  -->
<svg version="1.1" id="Layer_1" xmlns="http://www.w3.org/2000/svg" xmlns:xlink="http://www.w3.org/1999/xlink" x="0px" y="0px"
	 viewBox="0 0 60 60" style="enable-background:new 0 0 60 60;" xml:space="preserve">
<style type="text/css">
	.st0{fill:#333333;stroke:#333333;stroke-width:2;stroke-miterlimit:10;}
	.st1{fill:#EEEEEE;}
	.st2{fill:none;stroke:#333333;stroke-width:2;stroke-miterlimit:10;}
	.st3{fill:#333333;}
	.st4{fill:none;stroke:#EEEEEE;stroke-miterlimit:10;}
	.st5{fill:#333333;stroke:#EEEEEE;stroke-miterlimit:10;}
	.st6{fill:#EEEEEE;stroke:#333333;stroke-miterlimit:10;}
	.st7{fill:none;stroke:#333333;stroke-width:3;stroke-miterlimit:10;}
	.st8{fill:none;stroke:#333333;stroke-width:2;stroke-linecap:round;stroke-linejoin:round;stroke-miterlimit:10;}
	.st9{fill:none;stroke:#333333;stroke-miterlimit:10;}
	.st10{fill:#333333;stroke:#333333;stroke-miterlimit:10;}
</style>
<g>
	<path class="st3" d="M21.2,55V34.7c0,0,0.1-2.2-2.9-2.2s-4.4,4.4-4.4,4.4v15.9c0,0,1.5,4.4,4.5,4.4S21.2,55,21.2,55z"/>
	<path class="st3" d="M38.8,55V34.7c0,0-0.1-2.2,2.9-2.2c3.1,0,4.4,4.4,4.4,4.4v15.9c0,0-1.5,4.4-4.5,4.4S38.8,55,38.8,55z"/>
	<path class="st3" d="M30,6C11.2,6,4.1,18,4.1,32.9c0,2.1,0.2,4.2,0.7,6.2l2.8,1.2L8,52.9h3.5V38l-5.7-1C5.7,22,12.3,10,30,10
		S54.3,22,54.3,36.9l-5.7,1v15H52l0.4-12.6l2.8-1.2c0.4-2,0.7-4,0.7-6.2C55.9,18,48.8,6,30,6z"/>
</g>
</svg>
