<?xml version="1.0" encoding="utf-8"?>
<!-- Generator: Adobe Illustrator 19.2.1, SVG Export Plug-In . SVG Version: 6.00 Build 0)  -->
<svg version="1.1" id="Layer_1" xmlns="http://www.w3.org/2000/svg" xmlns:xlink="http://www.w3.org/1999/xlink" x="0px" y="0px"
	 viewBox="0 0 60 60" style="enable-background:new 0 0 60 60;" xml:space="preserve">
<style type="text/css">
	.st0{fill:#333333;stroke:#333333;stroke-width:2;stroke-miterlimit:10;}
	.st1{fill:#EEEEEE;}
	.st2{fill:none;stroke:#333333;stroke-width:2;stroke-miterlimit:10;}
	.st3{fill:#333333;}
	.st4{fill:none;stroke:#EEEEEE;stroke-miterlimit:10;}
	.st5{fill:#333333;stroke:#EEEEEE;stroke-miterlimit:10;}
	.st6{fill:#EEEEEE;stroke:#333333;stroke-miterlimit:10;}
	.st7{fill:none;stroke:#333333;stroke-width:3;stroke-miterlimit:10;}
	.st8{fill:none;stroke:#333333;stroke-width:2;stroke-linecap:round;stroke-linejoin:round;stroke-miterlimit:10;}
	.st9{fill:#333333;stroke:#333333;stroke-miterlimit:10;}
</style>
<g>
	<path class="st3" d="M50.8,5.9H9.2c-2.2,0-4,1.8-4,4v43.8c0,2.2,1.8,4,4,4h41.6c2.2,0,4-1.8,4-4V9.9C54.8,7.7,53,5.9,50.8,5.9z
		 M12.6,53.7c0,0.6-0.4,1-1,1c-0.6,0-1-0.4-1-1V51h2V53.7z M14.7,50H8.5v-3.4h6.2V50z M10.6,45.7v-8.9c0-0.6,0.4-1,1-1
		c0.6,0,1,0.4,1,1v8.9H10.6z M20.2,53.7c0,0.6-0.4,1-1,1c-0.6,0-1-0.4-1-1v-8.9h2V53.7z M22.3,43.8h-6.2v-3.4h6.2V43.8z M18.2,39.4
		v-2.7c0-0.6,0.4-1,1-1c0.6,0,1,0.4,1,1v2.7H18.2z M27.9,53.7c0,0.6-0.4,1-1,1c-0.6,0-1-0.4-1-1V51h2V53.7z M29.9,50h-6.2v-3.4h6.2
		V50z M25.9,45.7v-8.9c0-0.6,0.4-1,1-1c0.6,0,1,0.4,1,1v8.9H25.9z M38.9,54.7c-1.5,0-2.7-1.2-2.7-2.7c0-1.5,1.2-2.7,2.7-2.7
		c1.5,0,2.7,1.2,2.7,2.7C41.7,53.5,40.4,54.7,38.9,54.7z M38.9,48c-1.5,0-2.7-1.2-2.7-2.7c0-1.5,1.2-2.7,2.7-2.7
		c1.5,0,2.7,1.2,2.7,2.7C41.7,46.7,40.4,48,38.9,48z M38.9,41.2c-1.5,0-2.7-1.2-2.7-2.7s1.2-2.7,2.7-2.7c1.5,0,2.7,1.2,2.7,2.7
		S40.4,41.2,38.9,41.2z M48.8,54.7c-1.5,0-2.7-1.2-2.7-2.7c0-1.5,1.2-2.7,2.7-2.7c1.5,0,2.7,1.2,2.7,2.7
		C51.5,53.5,50.3,54.7,48.8,54.7z M48.8,48c-1.5,0-2.7-1.2-2.7-2.7c0-1.5,1.2-2.7,2.7-2.7c1.5,0,2.7,1.2,2.7,2.7
		C51.5,46.7,50.3,48,48.8,48z M48.8,41.2c-1.5,0-2.7-1.2-2.7-2.7s1.2-2.7,2.7-2.7c1.5,0,2.7,1.2,2.7,2.7S50.3,41.2,48.8,41.2z
		 M51.5,32.8h-43V8.9h43V32.8z"/>
	<g>
		<g>
			<rect x="10.7" y="20.3" class="st3" width="38.6" height="1"/>
		</g>
		<g>
			<g>
				<rect x="20.2" y="16.5" class="st3" width="1" height="8.5"/>
			</g>
			<g>
				<rect x="43.5" y="17" class="st3" width="1" height="7.7"/>
			</g>
			<g>
				<rect x="41.2" y="14.9" class="st3" width="1" height="11.9"/>
			</g>
			<g>
				<rect x="38.8" y="12.5" class="st3" width="1" height="16.5"/>
			</g>
			<g>
				<rect x="36.5" y="10.6" class="st3" width="1" height="20.5"/>
			</g>
			<g>
				<rect x="34.2" y="12.5" class="st3" width="1" height="16.5"/>
			</g>
			<g>
				<rect x="31.8" y="17" class="st3" width="1" height="7.7"/>
			</g>
			<g>
				<rect x="29.5" y="18.8" class="st3" width="1" height="4"/>
			</g>
			<g>
				<rect x="45.8" y="18.8" class="st3" width="1" height="4"/>
			</g>
			<g>
				<rect x="27.2" y="18.8" class="st3" width="1" height="4"/>
			</g>
			<g>
				<rect x="24.8" y="18.1" class="st3" width="1" height="5.5"/>
			</g>
			<g>
				<rect x="22.5" y="15.3" class="st3" width="1" height="11"/>
			</g>
			<g>
				<rect x="17.8" y="18.1" class="st3" width="1" height="5.5"/>
			</g>
			<g>
				<rect x="15.2" y="18.8" class="st3" width="1" height="4"/>
			</g>
		</g>
	</g>
	<circle class="st3" cx="38.9" cy="38.5" r="1.3"/>
	<circle class="st3" cx="48.8" cy="45.2" r="1.3"/>
</g>
</svg>
