<?xml version="1.0" encoding="utf-8"?>
<!-- Generator: Adobe Illustrator 19.2.1, SVG Export Plug-In . SVG Version: 6.00 Build 0)  -->
<svg version="1.1" id="Layer_1" xmlns="http://www.w3.org/2000/svg" xmlns:xlink="http://www.w3.org/1999/xlink" x="0px" y="0px"
	 viewBox="0 0 60 60" style="enable-background:new 0 0 60 60;" xml:space="preserve">
<style type="text/css">
	.st0{fill:#333333;stroke:#333333;stroke-width:2;stroke-miterlimit:10;}
	.st1{fill:#EEEEEE;}
	.st2{fill:none;stroke:#333333;stroke-width:2;stroke-miterlimit:10;}
	.st3{fill:#333333;}
	.st4{fill:none;stroke:#EEEEEE;stroke-miterlimit:10;}
	.st5{fill:#333333;stroke:#EEEEEE;stroke-miterlimit:10;}
	.st6{fill:#EEEEEE;stroke:#333333;stroke-miterlimit:10;}
	.st7{fill:none;stroke:#333333;stroke-width:3;stroke-miterlimit:10;}
	.st8{fill:none;stroke:#333333;stroke-width:2;stroke-linecap:round;stroke-linejoin:round;stroke-miterlimit:10;}
	.st9{fill:#333333;stroke:#333333;stroke-miterlimit:10;}
</style>
<g>
	<path class="st3" d="M14.3,31.5l15.5,16.3l6.8,3.5c1.7,0,3.2-1.3,3.2-3.1l-3.2-7L21.2,24.9c-0.6-0.6-1.6-0.7-2.2-0.1l-4.6,4.4
		C13.7,29.8,13.7,30.8,14.3,31.5z"/>
	<g>
		
			<rect x="7.7" y="18.3" transform="matrix(0.7244 -0.6893 0.6893 0.7244 -11.1048 12.4775)" class="st3" width="4.7" height="3.7"/>
		
			<rect x="11.4" y="21.5" transform="matrix(0.7245 -0.6893 0.6893 0.7245 -12.7828 16.1359)" class="st3" width="4.7" height="5.1"/>
		<path class="st3" d="M9.8,16.4l-1.1-1.1c-0.9-0.9-2.3-0.9-3.2-0.1l-0.2,0.2c-0.9,0.9-0.9,2.3-0.1,3.2l1.1,1.1L9.8,16.4z"/>
	</g>
	<g>
		<path class="st3" d="M55.2,47.8c-0.3-2.8-1.1-5.5-2.5-7.9c-1.9-3.4-4.6-5.9-7.4-8.5L44.8,31c-2.5-2.2-5-4.4-6.9-7.2
			c-2.2-3.3-3.1-7-2.5-10.2c0.7-3.5,3.6-6.2,6.3-5.8c3.2,0.4,5.3,4.1,7.1,8c0.2,0.5,0.8,0.7,1.3,0.5c0.5-0.2,0.7-0.8,0.5-1.3
			c-2-4.4-4.5-8.6-8.7-9.2c-3.8-0.5-7.6,2.8-8.5,7.4c-0.7,3.7,0.3,7.9,2.8,11.6c2,3,4.6,5.4,7.2,7.6L44,33c2.7,2.4,5.3,4.8,7,8
			c1.2,2.1,2,4.6,2.2,7.1c0.2,2.2,0,3.9-0.7,5.3c-1.1,2.1-3.5,3.3-5.7,2.8c-1.8-0.5-4.2-2.8-6.5-5.5c-0.4,0.6-0.9,1-1.5,1.4
			c2.6,2.9,5.3,5.5,7.5,6c0.5,0.1,1,0.2,1.6,0.2c2.6,0,5.2-1.5,6.4-4C55.2,52.5,55.5,50.4,55.2,47.8z"/>
	</g>
</g>
</svg>
