<?xml version="1.0" encoding="utf-8"?>
<!-- Generator: Adobe Illustrator 19.2.1, SVG Export Plug-In . SVG Version: 6.00 Build 0)  -->
<svg version="1.1" id="Layer_1" xmlns="http://www.w3.org/2000/svg" xmlns:xlink="http://www.w3.org/1999/xlink" x="0px" y="0px"
	 viewBox="0 0 60 60" style="enable-background:new 0 0 60 60;" xml:space="preserve">
<style type="text/css">
	.st0{fill:#333333;stroke:#333333;stroke-width:2;stroke-miterlimit:10;}
	.st1{fill:#EEEEEE;}
	.st2{fill:none;stroke:#333333;stroke-width:2;stroke-miterlimit:10;}
	.st3{fill:#333333;}
	.st4{fill:none;stroke:#EEEEEE;stroke-miterlimit:10;}
	.st5{fill:#333333;stroke:#EEEEEE;stroke-miterlimit:10;}
	.st6{fill:#EEEEEE;stroke:#333333;stroke-miterlimit:10;}
	.st7{fill:none;stroke:#333333;stroke-width:3;stroke-miterlimit:10;}
	.st8{fill:none;stroke:#333333;stroke-width:2;stroke-linecap:round;stroke-linejoin:round;stroke-miterlimit:10;}
</style>
<g>
	<g>
		<path class="st3" d="M47.3,35.5v-2c3.6,0,6.5-2.9,6.5-6.5s-2.9-6.5-6.5-6.5c0,0-0.1,0-0.1,0l-1.2,0l0.2-1.2
			c0.1-0.6,0.1-1.1,0.1-1.6c0-6-4.9-10.9-10.9-10.9c-4.2,0-8,2.4-9.8,6.2L25.2,14l-0.9-0.4c-0.8-0.3-1.6-0.5-2.4-0.5
			c-3.6,0-6.5,2.9-6.5,6.5c0,0.1,0,0.1,0,0.2l0,1.3l-1.3-0.3c-0.6-0.1-1.1-0.2-1.5-0.2c-3.6,0-6.5,2.9-6.5,6.5s2.9,6.5,6.5,6.5v2
			c-4.7,0-8.5-3.8-8.5-8.5c0-4.7,3.8-8.5,8.5-8.5c0.3,0,0.5,0,0.8,0c0.5-4.2,4.1-7.5,8.4-7.5c0.8,0,1.6,0.1,2.3,0.3
			c2.3-4,6.6-6.5,11.2-6.5c7.1,0,12.9,5.8,12.9,12.9c0,0.3,0,0.5,0,0.8c4.2,0.5,7.5,4.1,7.5,8.4C55.8,31.7,52,35.5,47.3,35.5z"/>
	</g>
	<path class="st3" d="M19.3,25.8v23c-1.6-0.6-3.9,0-5.5,1.7c-2.1,2.1-2.6,5.1-1,6.7c0.8,0.8,1.9,1.1,3.2,0.9
		c1.2-0.2,2.5-0.9,3.5-1.9c1.1-1.1,1.8-2.4,1.9-3.7l0-17h18.7v13.3c-1.7-0.6-3.9,0-5.5,1.7c-1,1-1.7,2.2-1.9,3.5
		c-0.2,1.3,0.1,2.4,0.9,3.2c0.6,0.6,1.5,1,2.5,1c0.2,0,0.5,0,0.7-0.1c1.2-0.2,2.5-0.9,3.5-1.9c1.1-1.1,1.8-2.4,1.9-3.7l0-26.7H19.3z
		 M40.1,30.8v1.3H21.4v-1.3H40.1z"/>
</g>
</svg>
